<?xml version="1.0" encoding="UTF-8" standalone="no"?>
<svg width="50px" height="25px" viewBox="0 0 50 25" version="1.1" xmlns="http://www.w3.org/2000/svg" xmlns:xlink="http://www.w3.org/1999/xlink" xmlns:sketch="http://www.bohemiancoding.com/sketch/ns">
    <!-- Generator: Sketch 3.3.3 (12072) - http://www.bohemiancoding.com/sketch -->
    <title>Oval 1 + Oval 1 Copy</title>
    <desc>Created with Sketch.</desc>
    <defs></defs>
    <g id="Page-1" stroke="none" stroke-width="1" fill="none" fill-rule="evenodd" sketch:type="MSPage">
        <path d="M-25,0 L75,0 L75,50 L-25,50 L-25,0 Z M0,50 C13.8071187,50 25,38.8071187 25,25 C25,11.1928813 13.8071187,0 0,0 C-13.8071187,0 -25,11.1928813 -25,25 C-25,38.8071187 -13.8071187,50 0,50 Z M50,50 C63.8071187,50 75,38.8071187 75,25 C75,11.1928813 63.8071187,0 50,0 C36.1928813,0 25,11.1928813 25,25 C25,38.8071187 36.1928813,50 50,50 Z" id="Rectangle-1" fill="#FFFFFF" sketch:type="MSShapeGroup"></path>
    </g>
</svg>