<?xml version="1.0" encoding="UTF-8" standalone="no"?>
<svg width="50px" height="25px" viewBox="0 0 50 25" version="1.1" xmlns="http://www.w3.org/2000/svg" xmlns:xlink="http://www.w3.org/1999/xlink">
    <g id="Page-1" stroke="none" stroke-width="1" fill="none" fill-rule="evenodd">
        <g id="split" sketch:type="MSLayerGroup" transform="translate(-25.000000, 0.000000)" fill="#ffffff">
            <g id="Page-1" sketch:type="MSShapeGroup">
                <path d="M0,0 L100,0 L100,50 L0,50 L0,0 L0,0 Z M25,50 C38.8071187,50 50,38.8071187 50,25 C50,11.1928813 38.8071187,0 25,0 C11.1928813,0 0,11.1928813 0,25 C0,38.8071187 11.1928813,50 25,50 L25,50 Z M75,50 C88.8071187,50 100,38.8071187 100,25 C100,11.1928813 88.8071187,0 75,0 C61.1928813,0 50,11.1928813 50,25 C50,38.8071187 61.1928813,50 75,50 L75,50 Z" id="Rectangle-1"></path>
            </g>
        </g>
    </g>
</svg>