<?xml version="1.0" standalone="no"?>
<!DOCTYPE svg PUBLIC "-//W3C//DTD SVG 1.1//EN" "http://www.w3.org/Graphics/SVG/1.1/DTD/svg11.dtd" >
<svg>
<metadata>
Created by FontForge 20090622 at Thu Jul 25 04:48:17 2013
 By ffonts
Copyright (c) 2013 by Paulo W. All rights reserved.
</metadata>
<defs>
<font id="Volstead" horiz-adv-x="253" >
  <font-face 
    font-family="Volstead"
    font-weight="400"
    font-stretch="normal"
    units-per-em="1000"
    panose-1="2 0 0 0 0 0 0 0 0 0"
    ascent="750"
    descent="-250"
    x-height="152"
    cap-height="706"
    bbox="-309 -584.971 1572.96 902"
    underline-thickness="50"
    underline-position="-50"
    unicode-range="U+0020-U+0079"
  />
<missing-glyph horiz-adv-x="500" 
 />
    <glyph glyph-name=".notdef" horiz-adv-x="500" 
 />
    <glyph glyph-name="B" unicode="B" horiz-adv-x="697" 
d="M352 34h2c11 0 13 2 18 7l9 -6l8 5c33 0 91 27 111 45l-58 2c-30 2 -61 -2 -96 10c-16 5 -80 21 -93 21c-7 -29 20 -48 17 -57c18 -2 41 -27 82 -27zM216 372c13 1 93 95 116 115c20 15 47 38 66 51s54 38 69 47c21 11 56 31 74 44c23 15 55 22 74 31
c45 23 109 37 153 41l13 -1l11 1c76 0 116 -72 66 -139c-18 -24 -45 -59 -69 -75c-21 -14 -72 -45 -79 -58h-17c-10 -6 -14 -16 -24 -18c-13 -3 -22 -2 -30 -15l-58 -16c52 -2 119 -24 119 -82v-18c0 -35 -28 -60 -49 -93c-16 -24 -74 -65 -83 -79c18 -7 82 14 96 19
c23 7 86 28 97 29l-14 -24l-25 -6l1 -4c-15 7 -36 -6 -43 -17c-22 0 -28 -7 -42 -8c-9 -1 -17 1 -37 -2c-20 -4 -51 0 -72 -12c-10 -7 -22 -16 -32 -22c-6 -4 -16 -5 -17 -6c-10 -7 3 -4 -7 -12c-11 -8 -58 -19 -68 -26h-16c-35 -23 -31 0 -68 0c-31 0 -40 17 -61 31
c-25 19 -24 41 -34 57l4 37c16 2 19 5 35 -6c16 -12 12 -3 35 -12c36 -11 49 -10 73 -15c39 -8 96 -8 154 -8c28 20 41 25 71 56c18 18 41 51 48 67c14 37 29 44 19 93c-5 22 -36 49 -64 49h-3h-20l8 -11h-15c-15 11 -31 12 -51 4c-15 -6 -16 -11 -26 -13
c-7 -2 -26 -5 -31 -7l-17 19c14 10 86 23 102 26c27 6 54 19 87 32c21 9 60 23 85 46c11 9 29 15 42 27c9 10 27 31 40 33c-3 6 21 34 27 40c5 7 17 37 19 51c1 23 -23 83 -56 60l-12 9l-133 -31c-16 -8 -27 -5 -47 -20c-14 -10 -13 -4 -19 -8c-6 -3 -11 -13 -17 -15
c-19 -8 -56 -29 -77 -29l-4 -14c-14 1 -41 -7 -33 -20l-9 -3l1 -4c-15 -2 -27 -14 -38 -23c-14 -14 -26 -14 -38 -23c-24 -19 -42 -36 -64 -57c-44 -45 -70 -73 -106 -121c-4 -6 -10 -9 -15 -15c-14 -18 6 1 -8 -16c-12 -14 -16 -22 -24 -30c-20 -21 -26 -49 -44 -71
c-18 -23 -58 -97 -55 -138c12 5 28 4 24 17c16 1 37 35 42 45c0 1 36 38 42 43c1 2 17 26 18 28c6 8 10 12 17 22c12 19 27 34 37 51c20 31 38 65 61 105c10 18 24 41 30 53c9 14 24 52 37 52h4c28 0 -11 -61 -18 -71c-17 -26 -31 -51 -45 -76c-12 -20 -97 -139 -93 -147
h-10c4 -11 -30 -44 -40 -56c-9 -8 -27 -37 -42 -39v-17c-17 -2 -28 -6 -30 -24l-14 -5l-9 6l-12 -22c-30 42 -19 59 -3 97c15 34 28 57 46 89c17 31 42 55 60 89c11 21 68 77 64 88z" />
    <glyph glyph-name="C" unicode="C" horiz-adv-x="463" 
d="M299 544c12 -5 32 17 44 25c13 9 34 20 49 28c19 12 30 15 43 25c10 7 36 19 51 23c65 22 121 50 184 50c17 0 60 0 91 -9c32 -11 63 -42 52 -83c-12 -38 -28 -58 -56 -86c-12 -12 -70 -65 -83 -67l4 -7l-113 -66l-40 -8v-9h-14c-19 -2 -27 -13 -38 3h-17
c-8 11 -11 11 -11 25v3c0 23 27 63 46 86c13 15 57 65 75 67l-3 6c21 2 7 7 21 7h24l2 -11c-3 -7 -54 -52 -67 -62c-27 -24 -40 -40 -56 -65c-24 -38 -26 -46 21 -37c20 4 60 18 78 31c23 17 50 21 77 48c21 23 47 32 66 63c14 25 41 40 44 69c1 11 13 20 7 47
c-2 11 -19 21 -26 32l-25 3l-1 -7l-22 4h-39c-10 0 -13 -2 -17 -7l-10 7l-39 -12c-13 7 -17 7 -27 -9c-53 0 -102 -35 -140 -54c-9 -4 -57 -31 -62 -35c-10 -9 -47 -42 -59 -43l4 -7c-20 -1 -88 -72 -83 -83c-26 -3 -100 -127 -116 -155c-19 -34 -61 -118 -61 -164v-10
l1 -17c-1 -34 17 -66 61 -66h31c12 0 50 10 78 15c24 4 47 17 75 26c19 5 20 9 35 14c2 0 40 16 42 17c21 12 56 41 76 32c-15 -22 -43 -34 -65 -43c-10 -4 -56 -37 -67 -37h-25l-3 -14l-15 -5l-9 6c-6 -8 -84 -33 -111 -31h-31l-35 10l-17 -9v15c-22 7 -38 40 -42 53
c-7 30 -5 32 -5 54c0 30 18 91 32 120c24 49 45 84 69 121c9 13 67 97 88 100l-3 3l29 26z" />
    <glyph glyph-name="E" unicode="E" horiz-adv-x="909" 
d="M489 398c11 1 35 31 46 45c16 19 36 33 49 50c27 40 63 68 99 99c44 38 62 51 115 77c37 18 98 31 125 31h4h17h22c22 0 53 -3 66 -22c-14 -9 -75 -6 -101 -16c-18 -6 -87 -43 -94 -43l-5 -11c-32 -6 -74 -86 -74 -108v-17c0 -32 50 -45 74 -45h15c8 0 64 12 73 19l12 -1
l1 -16c-23 -1 -90 -25 -107 -34l-49 -24c-11 -6 -36 -26 -45 -27l4 -5c-26 -4 -83 -74 -100 -93c-16 -20 -49 -80 -49 -112v-24c0 -47 34 -92 92 -92h36c32 0 61 19 87 25c35 8 57 28 85 48c3 -8 3 2 3 -11c0 -20 -68 -40 -75 -52c-10 0 -50 -12 -53 -13
c-12 -6 -40 -6 -47 -13l-9 7l-6 -8l-28 6c-16 -9 -71 21 -84 35c-27 33 -30 43 -30 81v4c0 12 1 3 -4 7c11 15 17 63 39 92c18 24 48 64 68 76c10 7 28 24 41 34c17 13 24 21 45 33c13 8 35 20 43 26c6 6 30 13 44 22c-44 0 -96 4 -103 47c-5 30 1 62 27 92
c10 11 29 33 42 39c15 8 13 13 24 20c8 4 19 8 26 13c27 21 57 24 96 42c-13 17 -102 -12 -118 -18c-19 -7 -27 -9 -51 -20c-13 -7 -39 -30 -52 -31l3 -7c-26 -2 -95 -83 -108 -86l3 -2l-121 -134l-13 -9l2 -2l-75 -79l3 -3c-24 -3 -89 -97 -115 -100l2 -2l-13 -13l2 -4
l-108 -75l-2 2l4 -7c-22 -1 -101 -65 -142 -65c-10 -14 -28 -24 -43 -17c7 29 49 25 67 36c15 9 22 12 33 19c12 10 25 6 38 18c15 15 47 29 68 48c18 16 44 33 65 46c11 8 50 43 61 55c19 19 36 37 56 56c13 13 48 53 52 57c8 6 48 44 45 54z" />
    <glyph glyph-name="D" unicode="D" horiz-adv-x="609" 
d="M102 155h-10c3 -8 -23 -44 -29 -55c-7 -12 -12 -21 -17 -33c-7 -18 -5 -30 -9 -37c18 -2 22 -5 37 2c13 6 5 1 15 5c13 4 8 7 17 11c22 10 46 22 69 41c74 65 69 78 69 -25c21 -32 35 -51 85 -50l24 -1h3c48 0 131 35 175 69c34 25 113 99 123 141c-13 3 -45 9 -62 12
c-14 2 -37 14 -55 21c-19 6 -44 17 -56 28c-10 7 -39 32 -50 33l2 4l-37 41l4 3h-10c3 7 -20 33 -28 43c-5 6 -18 35 -27 48c-11 -7 -124 -142 -126 -150c-9 -22 -114 -135 -107 -151zM673 527c-21 49 -42 78 -67 122c-20 27 -40 33 -64 52c-10 9 -58 21 -71 30
c-40 -10 -37 9 -87 -16c-29 -14 -38 -36 -49 -59c-18 -34 -15 -97 -3 -152c35 9 99 114 132 114h3h14c0 -26 -16 -31 -29 -44c-12 -11 -22 -31 -42 -33c3 -8 -13 -26 -27 -27l2 -3l-15 -10c5 -16 -36 -18 -16 -53c15 -23 22 -42 40 -62c19 -22 85 -97 115 -99l-4 -6
c26 -3 49 -20 77 -28c21 -6 52 -17 70 -19c23 -2 48 124 45 144l1 14c-3 39 -4 85 -25 135zM305 629c29 53 15 46 62 94c36 36 78 20 121 20c1 0 6 4 6 4c9 -12 56 -29 69 -36c8 -5 50 -48 58 -57c20 -23 29 -35 44 -64c8 -16 15 -23 19 -33c5 -13 11 -30 15 -35
c20 -33 24 -103 26 -150c1 -36 -4 -50 -9 -77c-2 -13 -25 -49 -18 -66l57 7c-8 -35 -61 -7 -71 -20c-38 -68 -80 -105 -145 -152c-53 -37 -139 -71 -207 -71c-45 0 -128 46 -115 112l-35 -27l-2 3l4 -7c-3 0 -87 -52 -95 -57l-31 -4l4 -6l-15 -3c-10 14 -26 12 -26 33
c0 37 50 121 63 144c13 26 87 117 82 126l4 -1l37 45l50 63l7 1l-2 3l30 36l18 18l12 18c-7 28 -10 41 -12 62c0 6 -4 74 -5 77z" />
    <glyph glyph-name="F" unicode="F" horiz-adv-x="646" 
d="M351 75c-32 0 -61 5 -116 7c-43 0 -86 8 -118 15c-95 19 -44 -83 84 -83c32 0 70 12 105 17c25 4 66 28 93 40v5zM160 644c0 31 63 4 85 -1c32 -5 74 -14 98 -13c18 0 54 -4 73 -4c21 0 44 1 66 4c17 2 54 5 86 9c25 3 50 12 82 20c24 6 49 16 79 21c24 3 59 19 83 19
c16 0 51 -16 51 -51c0 -6 -26 -90 -27 -92c-10 -26 -22 -60 -37 -86c-17 -31 -27 -51 -47 -79c-16 -26 -36 -49 -50 -74l18 -7l51 6l48 -1l3 2l24 -2l4 2l17 -1l30 1l1 -24l-38 -4v5l-73 -1h-43h-17h-15c-6 1 -30 0 -39 -12c-4 -5 -24 -29 -21 -36c-12 -1 -39 -33 -53 -47
c-10 -10 -55 -39 -51 -49l-71 -50h20c41 2 45 5 85 11c12 2 100 23 100 23h10l-1 -17c-31 -3 -70 -15 -118 -21c-49 -5 -68 -13 -113 -13c-22 0 -90 -48 -129 -57c-18 -4 -40 -15 -65 -18c-26 -4 -32 -7 -58 -7h-24c-26 0 -74 10 -100 26c-15 10 -39 31 -41 46
c-10 40 0 32 21 47c85 -17 199 -27 332 -27h23c19 0 67 26 72 48l36 23l8 9c16 4 42 45 53 55c7 7 51 57 53 63h-18l-75 -2l-138 -4c-31 -2 -32 -8 -52 6c12 17 16 18 34 18h4h85h10h17h14s12 2 16 2h32l16 -1c100 1 63 -1 115 58c23 28 42 66 62 98c18 25 39 81 52 108
c16 32 44 83 4 108c-47 0 -133 -35 -170 -44c-49 -13 -105 -28 -152 -34l-78 -9h-23l-18 1l-9 -1l-18 1l-120 16l-67 17c6 15 -4 0 -4 16z" />
    <glyph glyph-name="H" unicode="H" horiz-adv-x="526" 
d="M397 379c-4 9 44 68 51 82c12 23 34 53 48 77c10 18 91 158 102 158h10c29 0 1 -28 -2 -34c-5 -8 -21 -36 -27 -43c-19 -27 -29 -48 -49 -76c-19 -25 -36 -66 -47 -79c-17 -21 -13 -16 -22 -35c-3 -6 -21 -28 -26 -37c-14 -27 -40 -50 -52 -77c-12 -25 -35 -49 -52 -75
c-14 -22 -36 -50 -55 -76c-10 -14 -61 -63 -57 -72c-16 -2 -13 -24 -36 -27l2 -6l-15 -11l3 -2c-15 -1 -31 -17 -27 -27l-56 -20c-80 0 -58 44 -79 60c4 9 3 -3 3 10c0 54 34 164 70 188c3 -6 6 -6 6 -13c0 -1 -13 -36 -13 -47v-13l10 -59h-3c-18 4 -23 28 -27 46
c-14 -5 -26 -68 -26 -86v-10c0 -43 12 -52 66 -52c16 11 26 11 35 15c13 6 19 19 30 28c13 10 19 20 31 31c15 15 15 22 23 30c16 17 91 117 92 133h10l47 77l-4 2h10l20 38l-4 2h10zM440 49c25 3 67 92 49 129c-8 -6 -36 -53 -45 -67c-7 -14 -14 -28 -18 -35
c-10 -15 -10 -26 -19 -40c6 -4 6 -7 13 -7c1 0 24 10 20 20zM509 244c-10 6 -16 13 -23 3l7 -2l-7 -1c1 -14 2 -14 13 -17zM519 267c26 17 72 105 85 122c11 13 14 19 21 28c8 10 20 24 26 32c8 12 25 45 35 56c17 16 31 48 49 68c4 5 47 60 49 62c4 8 80 113 92 113h3
c27 0 1 -34 -8 -42c-12 -12 -26 -37 -34 -47c-13 -15 -75 -89 -70 -99c-13 -1 -22 -20 -31 -32c-8 -12 -19 -26 -25 -37c-16 -26 -39 -54 -58 -81c-19 -29 -41 -50 -54 -73c-11 -21 -42 -53 -50 -74l23 -3h36l17 1c11 -1 6 7 16 -11c-10 -7 -22 -13 -33 -13h-3l-17 1l-3 -1
c-21 0 -45 13 -60 -2c-8 -8 -14 -17 -20 -27c-8 -14 -1 -19 2 -39c2 -12 -2 -53 -12 -69c-8 -14 -9 -16 -14 -27c-7 -14 -23 -15 -18 -27l-16 -8c4 -9 -38 -32 -43 -32c-42 0 41 139 49 152c25 39 33 33 22 75c-6 20 -47 42 -68 44l1 10z" />
    <glyph glyph-name="I" unicode="I" horiz-adv-x="783" 
d="M444 97l-199 20c-5 4 -78 20 -90 20c-13 0 -1 2 -10 -4c-8 13 -70 24 -83 24c-12 0 -1 -1 -10 4c-17 -25 -18 -16 -15 -44c3 -19 16 -39 28 -51c24 -24 72 -38 104 -35l28 3l8 -7c12 2 39 4 54 5c32 3 31 6 63 15c34 9 112 35 122 50zM780 570c6 -12 -30 -40 -41 -51
c-18 -18 -32 -38 -49 -55c-15 -17 -75 -88 -85 -113c-6 -17 -27 -42 -38 -60c-14 -21 -21 -37 -34 -58c-27 -50 -36 -71 -58 -119c43 16 60 36 100 62c19 12 87 76 103 77l-3 7c18 2 51 44 66 57c12 11 58 51 53 63c15 1 46 41 46 53h11c-4 10 31 46 42 57c7 6 36 48 44 60
c14 23 71 108 71 127v2c0 24 -53 4 -64 1c-31 -10 -36 -17 -58 -33c-20 -16 -33 -21 -52 -38c-8 -8 -41 -38 -54 -39zM820 633c9 1 75 41 91 49c23 11 60 24 89 24l23 -21c-11 -23 -6 -30 -15 -49c-10 -18 -21 -37 -32 -53l-33 -52c-13 -18 -28 -33 -37 -47
c-11 -17 -27 -33 -35 -44c-14 -20 -20 -29 -38 -46c-15 -14 -82 -69 -76 -85c-13 -1 -18 -3 -13 -13l-15 -10l-46 -38l-2 2c-3 -13 -33 -39 -47 -40l4 -6l-3 2l-65 -51l1 -4l-66 -38l13 -4h40l20 2l36 2l24 1l146 12l-1 -9c-17 -11 -14 -23 -32 -9l-9 -11
c-11 15 -40 6 -62 5c-21 -1 -41 -4 -56 -5h-140c-25 0 -43 -66 -48 -90c-2 -7 -8 -39 -9 -49c-2 -12 4 -39 -19 -41c3 8 1 29 2 46c0 6 6 21 9 32c6 21 17 62 19 82c-28 -18 -132 -53 -162 -53c1 -6 3 -10 -7 -10c-2 0 -8 4 -11 7c-18 -11 -25 3 -37 -14l-11 9
c-11 -4 -17 1 -12 -12l-23 -1l-3 14h-17l14 -5c-27 -1 -53 -5 -61 15l-9 -7c-20 14 -4 7 -23 20c-11 8 -18 13 -24 17c-18 10 -29 49 -43 53c4 10 3 -2 3 11s-11 59 30 59c5 0 31 -9 36 -13c32 0 46 -10 74 -15c22 -3 50 -12 72 -13c40 -2 103 -18 147 -22l77 -7
c27 41 30 75 54 116c22 38 35 75 60 113c19 29 142 204 169 208l-5 5c17 2 50 52 71 54l-1 6l26 16z" />
    <glyph glyph-name="J" unicode="J" horiz-adv-x="476" 
d="M93 57l-41 -29l1 -3l-1 2l-67 -53l1 -5c-17 -1 -77 -74 -86 -84c-30 -37 -51 -60 -73 -97c-4 -6 -15 -22 -15 -24c-8 -17 -9 -13 -17 -25c-9 -15 -15 -33 -25 -55c-20 -38 -26 -73 -26 -105v-3c0 -26 23 -44 54 -44c12 8 51 9 78 29c9 5 14 6 21 11c10 4 12 11 19 17
c5 4 27 19 36 26c20 14 126 127 122 137l6 3l95 126l-4 4h9l-2 1l57 81l-6 8l-5 -2c-69 0 -99 38 -124 84h-7zM105 59c10 -2 22 -28 30 -36c18 -23 23 -20 45 -33l67 -7c6 14 11 20 19 32c3 7 15 21 17 27c10 20 33 42 40 57c5 11 31 40 38 53c10 20 36 47 39 62
c-48 -11 -279 -125 -295 -155zM95 154l3 -32l2 2c-6 -12 -2 -33 3 -45c23 12 45 26 64 36c13 9 20 14 33 21c10 4 11 6 16 10c4 3 7 0 17 6c20 14 95 48 124 57c18 6 49 16 62 30c4 5 36 52 40 59c5 10 12 15 20 30c8 11 15 20 22 33c10 16 23 34 40 56c5 12 7 13 16 26
c0 1 15 27 17 30c4 10 30 53 34 61c12 15 25 36 37 60c8 15 12 22 16 31c5 8 5 27 11 28v12c0 17 -12 18 -22 24c-14 -3 -27 -2 -41 -5c-15 -1 -34 -11 -54 -14c-31 -7 -63 -20 -89 -32c-71 -33 -129 -77 -182 -128c-37 -39 -109 -120 -128 -165c-4 -10 -14 -26 -21 -44
c-6 -15 -10 -26 -19 -45c-5 -10 -21 -90 -21 -102zM293 549c8 2 73 51 89 60c33 19 57 29 93 47c27 12 71 27 98 31c12 1 36 11 50 12c5 0 15 2 24 2c15 -2 15 -8 27 -9c4 -14 12 -18 12 -32c0 -7 -25 -88 -38 -109c-20 -39 -35 -63 -58 -104c-10 -14 -26 -37 -33 -49
c-11 -17 -21 -28 -33 -46c-6 -12 -27 -46 -30 -51c-11 -15 -33 -38 -28 -51c19 10 117 36 129 30l-1 -14c-41 1 -66 -8 -100 -21c-18 -6 -29 -9 -43 -12c-9 -3 -27 -24 -23 -33h-8l-138 -205c31 -18 98 41 129 43l-4 5l37 16l6 -7c-3 0 -73 -43 -84 -49
c-20 -8 -75 -28 -96 -28l-146 -197l-8 -2c6 -12 -57 -59 -52 -70c-17 -2 -75 -92 -101 -95l2 -2l-12 -9l2 -3c-11 -2 -34 -24 -46 -30c-15 -9 -29 -19 -44 -27c-33 -18 -67 -14 -92 -21v6l-18 6l2 4c-18 2 -25 41 -25 49v4c0 42 39 131 58 166c3 7 7 11 13 17c5 8 5 7 11 17
c3 7 21 32 26 41c8 13 60 70 56 77c11 0 21 20 31 28c11 11 20 21 31 33c12 12 55 47 69 55c13 6 63 46 64 54c2 11 -8 24 -11 36c-1 7 -1 24 -2 38c-6 53 13 123 32 164c14 26 32 58 43 76c5 8 49 58 46 66h9l-3 2l46 51l16 16l27 22z" />
    <glyph glyph-name="K" unicode="K" horiz-adv-x="735" 
d="M215 307l44 67l-2 2l-23 -1h-9c-7 0 -14 3 -17 2l-23 2c0 -24 12 -71 30 -72zM273 392c2 24 90 137 104 162c11 21 42 67 53 80c4 4 14 29 18 35c15 28 26 9 39 15l2 -11c-5 -8 -7 -14 -16 -27c-3 -6 -13 -15 -19 -24c-7 -11 -9 -21 -19 -32c-6 -7 -16 -19 -20 -28
c-8 -14 -26 -39 -38 -57c-10 -13 -29 -51 -42 -52l4 -2l-36 -53c8 -5 -4 -3 9 -3h4c21 0 104 22 120 28c13 5 33 11 48 16c15 3 36 19 46 24c35 13 72 46 101 59c15 7 81 63 90 64l-3 6c9 1 37 17 32 27l3 -3l56 51l3 -3c-10 23 78 25 -6 -43c-16 -12 -76 -69 -94 -71l3 -6
c-4 -1 -118 -73 -130 -79c-44 -22 -95 -41 -137 -53c-47 -13 -85 -26 -136 -31c-25 -2 -44 -33 -53 -52c-1 -1 -37 -55 -41 -57c39 -73 68 -115 124 -172c47 -47 135 -88 184 -88c32 0 51 -5 88 2c14 1 37 5 51 7c29 5 33 11 56 13c-3 -34 -134 -35 -156 -35h-9
c-35 0 -42 2 -71 7c-27 6 -29 10 -60 21c-44 15 -113 81 -123 82c3 8 -12 25 -26 26l-73 105c-3 -1 -78 -109 -81 -116s-74 -119 -80 -119h-6c-9 0 -13 8 -16 14c19 35 169 243 169 253c0 11 -52 115 -29 122l55 -4c18 0 29 2 48 2h10z" />
    <glyph glyph-name="L" unicode="L" horiz-adv-x="665" 
d="M77 124l4 -7c-16 -1 -28 -19 -38 -30c-6 -7 -13 -11 -18 -18c-8 -10 0 -7 -9 -21c18 -27 -8 -10 33 -38c21 0 44 -7 53 -4c22 5 29 7 50 14c16 6 35 16 50 24c11 7 41 30 48 31l-3 6c18 1 75 71 71 78h10l-3 2l22 34c-59 0 -101 -2 -142 -17c-21 -7 -37 -7 -65 -23
c-8 -3 -56 -30 -63 -31zM740 656l3 -6c-37 -3 -76 -71 -92 -74l-11 -13l-56 -63l7 -10c19 14 64 24 81 34c13 7 20 9 32 14c11 4 8 7 16 10c12 4 6 0 17 8c34 21 133 76 136 119l-19 13c-14 -6 -44 -4 -56 -9c-10 -4 -52 -22 -58 -23zM386 451c39 0 80 11 126 20
c34 6 79 76 107 105c37 37 75 71 118 92c66 33 77 30 136 30c18 -26 14 -5 14 -42l-34 -35l-19 -20l-4 3l5 -6l-26 -14v-6c-10 -1 -48 -23 -59 -30c-21 -13 -32 -14 -51 -25c-27 -19 -82 -35 -113 -47c-39 -17 -19 -12 -40 -36c-6 -5 -24 -33 -29 -41
c-11 -19 -22 -36 -34 -53c-3 -7 -28 -41 -25 -47h-10c4 -8 -48 -80 -55 -91c8 -4 26 0 45 -7c15 -5 27 -8 38 -11c35 -12 51 -23 77 -43c42 -31 87 -80 87 -137c0 -21 -2 -39 -14 -67c-5 -13 -26 -49 -42 -60c-13 24 5 16 17 46c7 22 11 40 10 58c0 19 -1 22 -6 45
c-4 15 -20 47 -17 52c-15 1 -20 21 -35 34c-7 6 -34 23 -42 29c-20 13 -80 34 -91 37c-63 10 -33 9 -72 -32c-12 -13 -61 -67 -76 -68l4 -5c-20 -2 -99 -92 -195 -85h-13c-15 1 -31 3 -47 14c-4 4 -18 27 -18 34c0 57 81 94 115 118c16 11 67 28 84 32c25 6 42 13 87 13
l8 16l4 -13l30 3c41 4 43 14 60 49c8 16 36 48 47 65l84 130l-7 6c-27 -13 -152 -32 -168 -32h-22c-6 0 -64 11 -75 16c-28 14 -41 10 -55 38l16 10c32 -20 92 -42 126 -42h49z" />
    <glyph glyph-name="M" unicode="M" horiz-adv-x="1085" 
d="M528 122c-10 -19 -13 -15 -25 -38c-3 -8 -20 -34 -25 -42l10 -7c1 15 55 71 62 85c7 11 20 22 27 40c6 14 24 24 24 44l-11 -12c-9 -4 -51 -52 -62 -70zM326 551l4 -5l-2 2l-93 -75l2 -7c-19 -1 -119 -133 -130 -156c-8 -19 -15 -21 -24 -39c-4 -12 -13 -25 -19 -38
c-12 -30 -28 -75 -26 -99l-2 -17v-9c0 -28 18 -76 60 -76c50 0 123 61 162 104c13 13 47 56 55 71c6 9 19 28 22 39c5 11 19 36 21 40c20 28 34 59 47 80c13 23 29 62 38 88c10 22 28 69 32 94c4 16 14 40 14 45s7 44 7 44c-49 -4 -145 -84 -168 -86zM520 887
c32 21 35 -5 34 -30l-2 -41l-2 -11l-19 -138l75 11l4 -1c10 0 38 -3 60 -9s55 -27 61 -27l-2 -7c21 -2 38 -51 41 -73c3 -30 1 -70 -8 -94c-11 -31 -19 -48 -32 -86c-8 -26 -25 -52 -35 -76c9 0 54 35 64 41c7 5 66 31 68 31h24c37 0 49 -34 49 -56v-16
c0 -16 -21 -83 -27 -99c-8 -22 -22 -78 -22 -105c0 -21 -6 -45 16 -66c19 -18 54 -17 64 -16c22 5 58 25 71 37c7 8 21 17 29 25c13 10 16 19 27 12c12 -21 -36 -46 -56 -59c-38 -24 -47 -25 -85 -24c-16 0 -53 -12 -69 22c-10 24 -24 35 -24 76v9c0 18 19 98 25 118
c13 37 36 84 17 119c-31 43 -127 -50 -158 -53l4 -6c-23 -2 -54 -47 -60 -60c-9 -16 -26 -44 -40 -65c-12 -21 -88 -124 -109 -126l-4 -10l-13 -15l-22 -2l-2 15l7 19l-13 11l4 4l11 -9c19 28 30 56 59 88c13 13 13 19 32 37c9 10 32 27 28 37c49 4 111 159 125 198
c12 37 28 82 28 112c0 18 -5 32 -7 49c0 8 -21 37 -18 46l-7 2l1 5c-18 1 -22 20 -46 24c-17 4 -34 8 -46 8h-30c-71 0 -65 -27 -78 -74c-11 -47 -21 -90 -37 -127c-15 -36 -29 -82 -54 -120c-12 -17 -19 -35 -33 -60c-6 -9 -36 -44 -32 -53l-16 -8c4 -10 -21 -34 -30 -44
c-17 -15 -17 -21 -31 -36c-16 -19 -59 -74 -85 -77l5 -6c-23 -2 -61 -40 -100 -40h-3c-16 0 -30 11 -46 14c3 10 -10 11 -17 29c-4 10 -10 29 -10 37v29c0 30 13 71 26 99c8 20 13 39 22 51c8 12 21 35 27 47c10 20 128 169 152 171c-3 10 56 54 70 63l-2 13
c16 7 0 -3 15 -3c0 0 83 53 93 57c16 7 26 10 46 17c19 6 29 20 29 41c0 28 17 69 18 108c1 26 6 53 1 96z" />
    <glyph glyph-name="N" unicode="N" horiz-adv-x="787" 
d="M302 122l-18 -16l-1 -11c22 3 -2 0 17 7l-3 7l9 9zM42 889c14 3 25 13 30 13h17c6 -26 47 -79 64 -98c19 -22 77 -57 103 -69c18 -8 29 -19 55 -27c0 0 19 -10 21 -13c12 -6 10 -1 24 -10c12 -6 37 -19 55 -29c9 -6 41 -31 48 -32l-4 -6c21 -2 33 -45 41 -66
c13 -30 6 -50 6 -83c-3 -4 -16 -58 -26 -81c-11 -23 -1 -13 -16 -40c-5 -9 -10 -26 -18 -41l9 3l-3 4c7 1 80 56 87 65c26 28 70 34 89 48c33 0 33 -7 43 -26c7 -15 4 -40 0 -55c-5 -23 -22 -72 -34 -100c-8 -22 -29 -82 -31 -106c-1 -8 -10 -41 -9 -51c2 -14 15 -49 14 -52
c20 -2 13 -14 33 -14h31c33 0 72 30 105 53c4 -8 3 2 3 -10v-3c0 -14 -43 -41 -55 -47c-23 -12 -44 -11 -67 -16l-30 6c-43 20 -57 63 -57 98c0 6 6 95 24 107l-3 10c10 16 10 31 17 46c8 16 5 24 13 39c14 23 16 62 16 90l-14 13c-13 -8 -32 -11 -57 -30
c-24 -17 -35 -21 -57 -42c-9 -9 -47 -39 -57 -46c-14 -9 -37 -39 -45 -55c-17 -31 -129 -223 -160 -223h-3c-10 0 -17 17 -17 24c0 1 14 22 15 24c5 6 8 11 13 24c7 13 32 42 28 50c14 2 28 31 36 40c10 10 36 35 43 44c26 33 33 75 51 104c33 57 78 150 66 226
c-10 73 -126 119 -192 145c-26 11 -37 12 -59 23c-20 10 -34 20 -56 31c-18 10 -88 73 -83 84c-15 3 -22 28 -31 43l-9 -7v4l-16 2l-8 15l8 6z" />
    <glyph glyph-name="O" unicode="O" horiz-adv-x="411" 
d="M624 449l-7 -30c19 2 28 40 42 60c2 3 30 55 30 62v10c19 6 37 112 24 112c-34 0 -105 -190 -89 -214zM594 690l49 6c2 0 16 -3 16 -10s-1 -4 -2 -13c-39 -9 -64 -8 -92 -17c-28 -8 -60 -20 -88 -34c-24 -13 -56 -28 -82 -47c-10 -7 -77 -53 -82 -54l4 -7
c-29 -2 -47 -57 -77 -59c6 -12 -29 -34 -36 -48c-7 -11 -11 -8 -20 -21c-5 -9 -13 -17 -19 -26c-15 -21 -64 -77 -66 -103h-10c2 -5 -42 -97 -45 -114c-8 -51 -13 -81 35 -114c68 0 110 -4 170 33c12 8 56 27 70 38c15 11 23 18 36 24c6 3 21 20 34 28
c20 12 120 108 130 125c13 21 39 44 56 66c4 6 14 24 20 31c18 24 9 10 9 35c0 42 14 90 22 128c3 17 22 63 28 69c3 4 31 52 29 57l36 20l13 -8l6 -48c5 -70 -73 -193 -114 -254c0 -32 5 -44 19 -73l-12 -17l-16 70c-17 -4 -56 -80 -77 -83l-6 -11c-13 -3 -27 -20 -23 -28
c-20 -2 -94 -91 -117 -93l-5 -11c-13 -3 -25 -13 -33 -22c-15 -16 -15 -10 -33 -21c-25 -18 -30 -25 -57 -39c-51 -25 -98 -45 -139 -45h-10c-11 0 -30 5 -42 10c-32 15 -19 18 -41 33c0 23 -6 23 -6 46c0 66 6 112 49 188c26 47 79 126 124 170c49 50 108 113 169 148
c52 31 147 84 200 88l-4 7l20 1z" />
    <glyph glyph-name="R" unicode="R" horiz-adv-x="807" 
d="M523 606h-10l-123 -83l2 -7c-10 -1 -52 -29 -47 -41c-19 -2 -141 -135 -155 -154l-23 -31l3 -2c-16 -1 -23 -32 -36 -48l-36 -50c-15 -21 -26 -34 -35 -54c-4 -8 -17 -47 -27 -53l-2 -27c19 -9 64 43 80 60c14 15 53 79 69 81c-4 11 98 130 91 148h10
c-4 10 62 116 68 127h13c14 -25 -16 -57 -33 -91c-4 -7 -26 -42 -32 -49c-3 -5 -23 -39 -26 -45c-6 -12 -22 -34 -29 -43c-7 -7 -35 -44 -36 -46c-4 -8 -26 -35 -35 -46c-10 -12 0 -8 -16 -19c-10 -5 -19 -10 -14 -20c-20 -2 -74 -73 -101 -73h-10c-11 0 -17 11 -17 23
c0 17 46 92 55 112c5 12 27 44 33 51c11 13 31 43 41 58c26 40 136 170 178 197c1 1 51 42 53 44c16 18 32 30 54 42c11 7 14 15 29 22c10 6 22 10 30 17c22 16 39 21 58 34c18 11 42 19 63 27c19 8 37 12 62 22c41 13 78 18 126 18l51 -22c18 -16 23 -53 18 -78
c-2 -10 -26 -47 -34 -56c-17 -22 -33 -37 -56 -51c-11 -7 -14 -17 -28 -26c-8 -4 -25 -14 -31 -19c-28 -27 -92 -51 -131 -71c-47 -23 -90 -19 -125 -19c-28 0 -19 -11 -15 -28c4 -12 8 -34 11 -45c3 -19 28 -75 38 -92c13 -28 81 -140 117 -144l-3 -6c8 -1 34 -13 45 -16
c22 -6 14 -7 36 -11c24 -2 42 -2 50 -2c13 0 39 9 43 9h10l4 -14l-8 -6l-9 3c-17 -12 -10 -7 -27 -7h-23c-32 0 -58 3 -79 11c-11 5 -26 11 -34 14c-10 3 -20 13 -31 19c-25 13 -103 92 -95 110c-16 2 -23 35 -34 53c-4 7 -22 54 -22 54c0 4 -12 51 -14 57
c-7 20 -6 45 -14 62c7 3 7 6 14 6c0 0 21 -12 24 -14l46 -3c21 -2 90 18 112 29c14 7 31 17 50 28c23 11 33 22 51 32c36 21 64 47 90 78c28 32 39 71 39 98c0 31 -31 48 -64 52c-15 2 -52 -4 -76 -13c-66 -21 -117 -34 -171 -73z" />
    <glyph glyph-name="S" unicode="S" horiz-adv-x="691" 
d="M269 31c36 0 70 7 109 14c19 4 89 26 104 47l-63 -2h-88h-16c-21 0 -71 6 -100 11c-23 5 -63 -42 -87 -44c5 -15 7 -17 33 -23c18 -3 32 -2 46 -6c17 -2 40 3 62 3zM62 132c0 -22 -2 -25 12 -47c5 -7 31 -27 35 -27c14 -1 64 38 71 48c-11 4 -36 9 -54 15
c-2 1 -53 21 -54 21h-10v-10zM521 293l4 -7c-13 0 -65 -32 -77 -41c-25 -17 -50 -28 -75 -43c-12 -8 -140 -85 -144 -86v-8l89 -4l32 -1c12 -1 11 -1 21 0l46 3h2c24 0 75 -2 90 8c34 18 41 40 62 67c9 15 58 121 51 155l7 9c-17 7 -82 -50 -108 -52zM783 607l4 -6
c-29 -2 -36 -44 -56 -46c4 -8 -17 -29 -22 -39c-5 -7 -14 -25 -17 -33c-7 -17 -25 -76 -20 -86c6 -2 78 42 93 51c17 10 29 22 43 33c2 3 34 22 44 28c33 20 53 49 82 73c12 10 29 26 37 39c15 31 7 31 13 45c-42 11 -55 12 -100 -6c-23 -7 -97 -53 -101 -53zM783 631
c25 1 49 27 73 35c30 10 53 21 75 21c32 0 28 9 66 -17l-2 -20c0 -29 -39 -68 -60 -89c-13 -13 -26 -29 -40 -38c-18 -11 -31 -21 -45 -34c-9 -9 -176 -113 -191 -118c6 -13 -23 -103 -32 -130c-4 -9 -11 -29 -13 -32c-4 -9 -17 -25 -19 -30c-5 -13 -31 -38 -41 -53
c29 -12 157 38 166 32c-8 -12 -64 -32 -94 -37c-19 -4 -66 -13 -88 -17c-12 -2 -37 -20 -48 -26c-22 -13 -23 -13 -48 -25c-22 -8 -77 -25 -84 -29l-34 -3l-61 -6l-11 3c-31 0 -55 1 -79 5c-16 2 -60 14 -62 14h-4c-14 0 -4 -11 -26 -13l4 -6l-1 2l-119 -77l2 -3l-26 -10
l-2 10l19 19l-1 2l134 82c-1 17 -56 40 -56 73v10c0 16 4 25 20 35c57 -13 112 -53 158 -42v7c20 2 146 87 174 100c25 14 59 35 83 49c31 19 61 34 91 53c29 18 69 31 76 59c10 42 12 59 23 88c15 41 21 47 52 83c13 15 53 63 75 66z" />
    <glyph glyph-name="T" unicode="T" horiz-adv-x="689" 
d="M780 695c22 -3 43 10 63 -7c-10 -13 -13 -11 -25 -3c-2 -1 -105 -26 -130 -28c-39 -8 -94 -35 -140 -43c-49 -7 -82 -18 -154 -20c-67 -2 -107 24 -159 24c-10 13 -88 29 -88 53v10c0 24 43 -7 52 -12c11 -7 41 -19 56 -20c36 -8 100 -21 132 -21h10h18h23h16
c42 0 122 19 160 28c23 3 65 13 90 22s65 9 76 17zM333 78c-44 0 -105 18 -146 25c-46 5 -123 58 -123 0c0 -49 102 -73 136 -73h39l20 3c1 0 8 -3 8 -3l4 8c34 0 111 27 122 40l-21 1h-20l-4 -1h-15zM844 671l6 17c57 -14 3 -133 -14 -169c-10 -20 -11 -25 -21 -45
c-6 -9 -17 -25 -21 -36c-6 -11 -52 -73 -49 -82h-10c7 -13 -46 -56 -52 -69c-1 -4 -47 -60 -56 -68c-5 -6 -69 -61 -71 -61c-29 -16 -46 -37 -77 -53c15 -21 186 44 203 35c10 -18 -35 -23 -53 -35l-25 -1l1 -5c-8 5 4 4 -9 4c-5 0 -55 -10 -59 -14h-38l-17 -10l-1 -4l-2 7
h-18c-26 0 -63 -28 -88 -32c-31 -10 -58 -20 -84 -37h-9l-2 7l-29 -1l-3 -13l-11 7c-18 -11 -35 -1 -54 0l1 7c-16 -4 -7 -7 -20 -7c0 0 -36 12 -37 13c-9 5 -27 14 -41 15c4 10 1 12 -14 13l4 7c-18 1 -26 23 -30 32c-13 34 -3 21 -2 47c24 2 15 18 46 3c7 -3 37 -8 52 -12
c21 -7 85 -20 92 -26l31 -2v-4l10 6l7 -8l54 -3l25 -1h13h38c25 0 146 85 141 102c21 1 21 15 32 29c7 7 25 24 32 24c-4 12 27 35 39 46c6 9 28 39 29 45l34 45l-3 4c20 1 84 116 94 131c23 36 68 141 36 152z" />
    <glyph glyph-name="U" unicode="U" horiz-adv-x="793" 
d="M183 440c29 0 66 0 86 2c31 6 54 14 77 17c19 3 50 16 69 24c17 7 44 14 65 23c42 19 95 42 137 69c12 8 23 14 35 22c9 7 29 21 31 22c21 12 41 47 60 18l-45 -64l-48 -58l2 -2c-13 -1 -53 -63 -63 -75c-9 -13 -58 -75 -55 -82h-10c3 -9 -28 -45 -38 -59
c-13 -23 -26 -36 -35 -59c-1 -2 -19 -25 -22 -28c-2 -4 -9 -20 -16 -30c-12 -16 -17 -35 -29 -53c-10 -16 -27 -49 -23 -69c4 -31 44 -28 61 -21c21 9 135 66 127 79c27 2 78 54 98 68c14 11 88 70 84 81c15 2 30 22 40 32c7 10 31 28 28 37c21 2 97 115 122 115
c22 0 -9 -44 -14 -49c-16 -18 -13 -23 -29 -43c-22 -23 -37 -62 -54 -85c-12 -16 -22 -31 -33 -49c-9 -13 -20 -38 -29 -50c-20 -24 -34 -70 -47 -91l3 -10h-5l-7 -35c9 -13 12 -26 2 -37l-15 2l2 10l-9 9l3 38c2 29 11 48 11 72l1 10l7 4c-2 10 -4 14 13 15
c-3 7 -6 23 13 25c-5 9 55 100 61 108c-11 0 -17 -4 -11 -12c-12 -1 -17 -3 -13 -12c-12 -1 -18 -5 -12 -13l-4 4l-27 -28l3 -2l-24 -20l-1 3c4 -12 -2 -16 -16 -17c-1 -19 -45 -28 -38 -46c-9 -1 -99 -70 -117 -80l-55 -35c-18 -11 -53 -18 -68 -28c-71 0 -73 13 -73 65
l-2 6l7 6c-6 24 27 89 39 113c14 25 74 109 75 121c11 -4 15 18 26 31c8 8 26 30 31 38c10 17 43 71 56 72l95 124c-7 0 -80 -44 -84 -46c-15 -9 -86 -42 -89 -49h-12c-6 0 -55 -31 -67 -34c-14 -2 -12 -2 -26 -6c-13 -4 -18 -10 -35 -11v-7l-143 -26l-2 3l-11 -1l-3 -1
l-29 1c-13 -1 -10 6 -28 -6l-3 12c-16 -7 -111 25 -99 51h-10l4 -14c-17 8 -23 -1 -26 16l13 6l15 -1c4 3 10 14 19 14h3c8 0 12 -6 16 -13h9c1 0 48 -18 54 -19c9 -2 38 -12 49 -12h2z" />
    <glyph glyph-name="Q" unicode="Q" horiz-adv-x="326" 
d="M209 116l13 13l-13 4l-3 -4zM91 194c15 -1 23 -14 36 -21c18 -10 23 -9 39 -16c9 23 -38 41 -50 61c-13 0 -31 7 -31 -5c0 -14 13 -3 6 -19zM102 463c1 18 83 88 99 98c18 12 43 29 57 42c19 13 46 27 56 34c27 23 100 46 125 50c60 13 70 12 117 12c15 0 24 0 37 -13
c-4 -7 -6 -18 -18 -18c-16 0 -20 6 -32 6c-9 -1 -13 -1 -22 0c-12 0 -46 -4 -58 -8c-37 -11 -65 -18 -112 -42c-39 -19 -71 -38 -110 -65c-17 -12 -92 -78 -101 -79l2 -3l-15 -13l2 -4c-14 -2 -25 -11 -20 -19l-23 -17c4 -8 -16 -21 -23 -32c-11 -16 -16 -21 -24 -34
c-2 -5 -17 -33 -18 -40c-7 -30 5 -21 11 -43l15 -6c48 -1 94 13 119 26c13 8 28 20 43 29c15 5 35 13 50 24c36 26 61 41 94 65c17 15 77 69 92 70l-5 7c12 2 52 49 62 63c19 32 26 38 60 55l9 -11l-22 -34l3 -3h-9c5 -14 -258 -368 -280 -424c27 -1 30 -2 54 0
c19 3 21 2 32 3c13 2 32 9 32 9h13l2 -8c-9 -14 -30 -15 -46 -15h-13v-7h-9c-8 0 -8 2 -14 7l-17 -2l-11 2l-16 -2l-19 2c-5 -13 -19 -22 -26 -37c-8 -19 0 -28 1 -45l-1 -13l1 -11l-5 -33c-7 -60 -45 -154 -84 -204c-16 -17 -21 -30 -40 -52c-14 -15 -25 -30 -39 -46
c-38 -38 -58 -49 -101 -78h-13c7 17 -13 12 11 19c12 6 19 6 22 19c21 -9 69 54 87 73c26 29 57 69 71 93c38 67 73 117 71 220l1 26h-8c0 -6 -130 -198 -139 -207c-22 -22 -126 -180 -126 -212v-11c-10 0 -17 3 -17 13c0 50 116 201 147 254c7 13 35 58 42 65
c2 2 35 52 35 54c3 7 36 50 42 58c36 50 10 24 6 66l-46 16l-1 5c-57 4 -63 51 -78 61l8 16l30 1c13 0 26 -19 40 -22l-4 -5c16 -2 32 -17 28 -28c28 -1 4 -38 71 -32c3 15 51 77 65 99c7 11 61 88 58 94h10c-2 9 24 46 37 59c18 21 26 42 38 60c-20 -2 -47 -44 -78 -47
l-6 -13c-11 -2 -102 -71 -122 -80c-44 -18 -95 -51 -146 -63c-72 -16 -107 19 -77 89c9 20 21 43 36 63c8 10 41 46 43 58z" />
    <glyph glyph-name="a" unicode="a" horiz-adv-x="262" 
d="M248 58l6 -31c-15 -5 -70 -23 -72 -23h-9c-25 0 -45 18 -47 50c-17 -11 -32 -24 -53 -36c-8 -4 -17 -4 -26 -6c-3 -1 -22 -8 -25 -8c-5 2 -18 24 -15 53c1 15 15 29 24 39c14 15 1 28 22 24l4 9c20 -10 39 16 59 23c7 2 46 5 56 10l29 -5c2 -3 9 -10 9 -12
c0 -6 -7 -17 -9 -19c-6 -5 -12 -1 -26 -1l17 -11c-3 -34 -46 -46 -26 -82c10 7 28 5 46 14c11 6 27 8 36 12zM44 45c27 -13 105 64 126 78c-36 0 -136 -55 -126 -78z" />
    <glyph glyph-name="b" unicode="b" horiz-adv-x="350" 
d="M356 108l-29 -47c-15 -4 -42 -14 -55 -13c-14 1 -29 6 -34 6c-18 -1 -13 -6 -35 4l-53 -44l-3 3l2 -4l-14 -12c-22 2 -58 -10 -62 35h-7l7 25l-3 1c-3 -1 -36 -25 -55 -36l-8 40c10 2 42 16 45 18c22 18 19 5 32 39c2 6 5 26 14 44c8 18 14 31 19 43c8 19 22 55 41 77
c11 13 17 28 25 39c12 20 17 25 28 43l66 89c10 2 70 66 86 79c18 16 24 24 44 39c23 16 24 18 60 18l9 -19c-5 -9 -8 -38 -17 -54c-5 -7 -25 -42 -27 -45c-6 -14 -21 -39 -30 -52c-5 -7 -21 -44 -33 -48l-34 -59l-13 -3c-2 -14 -71 -93 -89 -109c-16 -18 -35 -34 -53 -49
c-10 -9 -52 -41 -49 -48l-8 -3l2 -4c-28 -2 -18 -32 -28 -54l12 -20c48 23 52 20 79 62c15 22 11 81 53 60c0 -42 -25 -44 -9 -73l64 9c10 6 33 10 51 20c3 2 6 2 9 3zM128 143l68 52c-6 16 50 50 56 66c3 7 48 58 59 70c23 27 30 45 51 75c15 22 7 20 26 41
c9 8 19 32 17 38h10c-2 21 -1 28 19 38c-12 27 5 15 13 29c6 13 12 30 -12 19c-10 -4 -44 -43 -60 -52c-4 -3 -48 -53 -54 -59c-9 -12 -19 -15 -24 -28c-2 -6 -16 -24 -23 -32c-15 -16 -29 -41 -41 -60c-16 -27 -24 -37 -38 -59c-12 -22 -66 -123 -67 -138z" />
    <glyph glyph-name="c" unicode="c" 
d="M245 97l-19 -31c-18 -9 -17 -14 -30 -21c-17 -9 -23 -9 -36 -14c-20 -10 -49 -24 -80 -24c-3 -2 -8 -7 -10 -7c-12 0 -37 13 -45 22c-11 12 -11 29 -14 37l34 55v2c8 5 17 12 25 17c18 13 98 42 98 6c0 -14 -10 -26 -32 -28l-6 16c-21 -2 -75 -30 -69 -45h-10
c4 -9 -6 -11 -6 -21c0 -65 128 7 159 17c14 6 25 13 39 18c1 0 1 1 2 1z" />
    <glyph glyph-name="d" unicode="d" horiz-adv-x="323" 
d="M321 40v-29c-38 -18 -78 -28 -118 -27c-58 0 -50 65 -42 99l-23 -19l-19 -19l-2 4c-3 -23 -53 -37 -64 -54l-32 -4c-14 -2 -19 18 -19 25v11v3l37 62c6 6 12 13 22 18c22 12 67 37 91 37c25 0 8 -20 -11 -28c-13 -6 -30 -19 -42 -26c-41 -23 -45 -17 -72 -66
c18 -15 43 15 61 23c26 12 34 24 60 50c20 21 39 42 53 60c21 27 24 39 42 67c9 14 37 50 47 67c5 11 30 50 43 66c17 22 30 39 40 65c5 13 43 47 40 66c23 6 41 74 72 43l-91 -155h-10l3 -2l-25 -42h-10c6 -14 -172 -228 -172 -286v-10c0 -51 111 -14 141 1z" />
    <glyph glyph-name="W" unicode="W" horiz-adv-x="936" 
d="M1374 676c4 0 82 49 93 55c28 16 73 33 97 36c18 -28 8 -32 -22 -39c-26 -5 -41 -15 -61 -25c-40 -19 -76 -45 -103 -61c-4 -3 -38 -35 -54 -36l2 -6c-10 -2 -15 -5 -10 -12c-18 -3 -80 -65 -76 -75c-25 -4 -192 -247 -228 -282c-18 -18 -42 -52 -60 -73
c-20 -22 -48 -50 -70 -70c-31 -25 -123 -94 -158 -91l-30 5c-4 10 -25 10 -34 44c-5 19 0 23 4 51c2 17 12 83 33 98l-5 13c13 3 40 63 49 76c12 20 37 64 48 72l-3 10c-8 -23 -65 -51 -57 -70l-21 -12c3 -7 -39 -48 -52 -50c4 -7 2 -11 -13 -11c5 -10 -32 -47 -48 -51l3 -5
c-13 0 -17 -4 -13 -13c-21 -1 -44 -40 -63 -53c-15 -11 -20 -17 -33 -26c-10 -11 -19 -11 -31 -23c-26 -26 -139 -83 -139 -9v6c0 32 16 66 16 76v8c11 3 23 46 29 52c12 15 21 36 32 51c17 23 20 32 38 56c10 15 18 35 36 52c10 13 27 46 39 61c18 18 27 36 39 51
c11 11 76 91 78 103c-15 -3 -92 -50 -111 -60c-17 -13 -34 -18 -50 -25c-12 -7 -39 -13 -46 -24c-28 0 -73 -31 -96 -34c-27 -5 -32 -13 -50 -14c-10 -3 -28 -4 -41 -9c-27 -5 -71 -11 -96 -6c-9 1 -37 0 -57 5c-19 6 -32 14 -47 16l4 8c-12 0 -17 3 -13 10h-8l-7 29h7v6h8
c9 0 50 -29 53 -32c10 6 48 -12 62 -12h3c119 0 210 25 301 66c23 12 39 19 65 30c26 12 48 26 66 34c25 14 43 28 67 41c12 7 54 44 59 44c4 0 11 -5 13 -7l3 -2l-94 -119l1 -2c-13 -2 -50 -62 -60 -76c-8 -10 -61 -72 -56 -80h-9c4 -10 -75 -115 -86 -135l-21 -34
c-8 -13 -13 -16 -20 -31c-8 -13 -32 -67 -32 -76v-1v-23c0 -3 11 -18 16 -25c15 7 23 7 34 13c12 6 21 10 33 17c29 13 38 27 59 37c20 13 13 14 27 26c8 5 11 1 26 18c8 8 45 44 52 45l-4 5c31 3 125 134 148 137c-5 11 64 68 70 83c13 22 59 59 72 84c4 6 66 80 72 88
c17 14 19 21 35 39c21 23 18 23 41 15c-13 -25 -8 -18 -25 -40c-6 -13 -30 -27 -26 -37l-13 -8c2 -5 -34 -51 -39 -57c-18 -19 -24 -36 -45 -55c-13 -14 -78 -108 -76 -116h-9c3 -8 -55 -92 -65 -118c-9 -25 -43 -82 -43 -127v-36l16 -1c11 1 41 -14 59 -10
c21 7 42 21 59 29v8c17 1 125 94 127 112c7 -1 29 30 27 36c17 1 59 65 67 79c13 11 15 9 22 23c4 9 10 13 16 25c6 9 37 34 32 45h7l11 22c13 4 15 15 24 29c7 11 18 19 25 30l21 27l-2 4c12 3 69 74 88 93c18 16 84 84 101 86z" />
    <glyph glyph-name="X" unicode="X" horiz-adv-x="737" 
d="M209 495c-2 3 -14 21 -15 33h19c3 -31 39 -41 59 -27h18c1 1 52 24 62 29c22 9 40 19 61 32c17 10 40 26 57 35c16 7 54 23 59 26c47 -10 57 -18 57 -64c0 -27 -41 -162 -60 -200c29 3 204 154 239 157l-4 7c7 1 120 75 130 84c31 28 83 59 118 80h13l-1 -11
c-27 -18 -153 -112 -174 -113c3 -8 -29 -35 -50 -37l5 -7l-4 4l-283 -197l-50 -164v-11c0 -4 -8 -33 -8 -49c0 -11 -3 -28 0 -41c5 -24 5 -28 20 -47c23 -25 29 -14 45 -26c66 0 83 2 127 23c19 9 85 40 91 55c61 -5 -76 -70 -81 -72c-7 -5 -56 -23 -57 -23
c-38 -6 -25 -5 -55 -5c-41 0 -38 4 -77 27c-27 16 -28 58 -41 77c0 41 1 77 6 115c3 33 30 75 30 106l-45 -31l2 -5l-101 -67l-3 2l4 -5l-187 -125l2 -5c-21 -2 -111 -85 -111 -50v11l80 46l1 -3l5 14l2 -4l249 172l2 -3l-3 7c17 1 60 41 80 52c36 18 39 35 52 68
c14 36 53 128 53 165c17 11 19 52 3 75l-60 -15l4 -6c-11 -2 -134 -71 -160 -84c-25 -13 -59 -31 -84 -25c-16 4 -33 9 -41 20z" />
    <glyph glyph-name="Y" unicode="Y" horiz-adv-x="734" 
d="M632 124l-19 -13l-2 -2l-57 -35l2 -5l-41 -21l2 -3l-55 -36l4 -4l-56 -35c6 -9 -44 -41 -56 -52c-23 -19 -42 -33 -61 -54c-20 -20 -41 -42 -50 -55c-16 -20 -38 -39 -55 -62c-14 -22 -31 -35 -47 -62c-17 -29 -28 -39 -41 -67c-17 -33 -54 -113 -36 -150l35 -11
c4 4 35 15 46 21c16 7 33 22 44 35c16 15 24 26 40 42c17 12 23 30 38 47c22 28 54 59 68 92c3 6 25 31 31 37c13 20 17 36 25 46c12 16 22 26 27 41c5 7 28 29 33 42c16 29 42 56 64 88c3 3 23 40 25 42l33 46c15 20 18 30 31 46c7 8 31 35 28 42zM195 461
c34 0 107 8 145 21c22 8 42 12 70 22c21 9 37 17 67 28c34 11 107 48 142 68c11 9 5 9 14 13c4 0 12 3 14 4c10 5 19 16 32 22c17 11 48 39 60 39c6 0 11 -7 11 -13v-3c0 -17 -89 -95 -84 -110h-9c4 -12 -41 -62 -52 -64l2 -4l-40 -52v-3h-7l3 -2l-62 -87l4 -1h-10
c6 -14 -54 -66 -28 -104c30 3 57 10 84 28c16 8 9 0 21 8c6 5 13 7 21 12c23 11 24 20 39 24c25 15 59 38 79 55c8 10 62 57 72 57l-4 6l1 -2l39 32l2 -4l-4 7h10l-3 3l13 13l3 -2l-5 4c21 1 37 30 36 35c11 1 57 56 70 69c11 11 61 74 64 85h13c4 0 20 -4 20 -15
c0 -17 -137 -182 -133 -195h-10c6 -12 -73 -108 -84 -126c-10 -17 -78 -120 -92 -124l3 -11c28 2 106 60 158 64c-1 -23 -45 -30 -63 -42c-25 -10 -50 -21 -70 -32c-24 -11 -51 -18 -64 -39c-9 -13 -34 -55 -46 -59l-40 -62l3 -2h-7c3 -11 -71 -103 -76 -117
c-2 -5 -74 -109 -82 -118c-27 -31 -56 -80 -80 -112c-16 -22 -26 -37 -43 -53c-9 -14 -44 -50 -39 -59c-21 -1 -40 -56 -68 -58c3 -8 0 -10 -15 -10l5 -10c-9 0 -61 -40 -87 -46c-33 -5 -59 6 -69 36c-14 28 5 61 10 88c6 14 15 28 19 43c4 12 24 28 18 39h13
c-7 10 59 112 81 116c-2 9 0 11 15 11l-5 5l17 20l-2 3c14 0 71 69 91 90c16 16 32 26 49 44c2 1 51 38 51 40c21 12 34 25 50 42c5 2 49 33 55 36c21 11 93 69 114 71l-4 6l52 32c16 33 71 91 74 117h4l155 221c-12 5 -106 -106 -130 -109l3 -5c-9 -1 -68 -49 -78 -57
c-26 -22 -54 -35 -80 -56c-17 -12 -76 -40 -88 -42c-26 -6 -59 -23 -74 -3c-19 27 -11 49 6 85c12 24 19 52 42 78c8 6 15 27 25 37c2 1 32 35 32 37c3 8 39 65 56 66l55 75c-37 -14 -71 -35 -105 -54c-37 -22 -67 -28 -94 -44c-31 -17 -188 -67 -211 -68l-48 -3h-2h-17h-14
h-41c-16 0 -50 18 -71 19l2 6c-13 1 -41 23 -41 36c0 7 1 4 2 14l11 2c22 -6 54 -34 81 -41c13 -1 63 -11 78 -11z" />
    <glyph glyph-name="V" unicode="V" horiz-adv-x="657" 
d="M1064 655c6 0 61 36 70 42c17 12 57 26 71 33c18 10 47 17 66 26c27 11 51 21 67 -2c-9 -14 -3 -19 -28 -24c-16 -4 -18 -6 -35 -10c-7 -3 -26 -9 -38 -13c-14 -3 -16 -9 -29 -12c-25 -10 -54 -22 -67 -32c-1 -2 -63 -37 -69 -38l2 -6c-29 -3 -105 -88 -118 -88l3 -3
l-49 -53l-17 -16c4 -11 -44 -40 -37 -57h-9c6 -13 -160 -212 -186 -239c-17 -16 -40 -41 -57 -55c-9 -9 -15 -18 -27 -27c-11 -12 -20 -13 -30 -24c-11 -11 -50 -31 -67 -42c-17 -8 -57 -20 -68 -20h-11c-5 0 -31 12 -37 15c-12 8 -18 27 -20 38c-10 33 -2 49 2 75
c4 24 16 44 30 71c5 8 14 24 18 36c7 13 -4 4 9 16c9 9 10 6 12 21h8l13 30l8 1l-5 2l43 53l-3 3h9c-5 12 48 59 59 79c10 16 16 22 30 37c12 9 33 26 28 36l3 -3l64 76c-12 0 -142 -79 -175 -89c-8 -3 -15 -8 -23 -11c-5 -4 -11 -3 -22 -7c-16 -8 -28 -12 -42 -17
c-14 -8 -14 -3 -20 -5c-6 -1 -17 -10 -20 -10c-15 -4 -28 -9 -39 -24c-25 13 -109 -19 -145 -19h-9l-21 5c-11 1 -17 -3 -43 5c-15 6 -36 9 -45 18c-33 27 -62 21 -29 68c20 -14 21 -20 47 -35c19 -8 35 -15 56 -18c32 -3 52 -4 84 -1l48 3c43 4 133 34 178 51
c27 10 63 30 95 40c3 1 33 19 42 22c18 8 4 -3 21 12c4 3 15 9 24 10l-3 6h15l97 65l12 -3c2 -6 3 -6 3 -14c0 -10 -47 -54 -58 -68c-8 -11 -56 -56 -54 -67l-2 3l-128 -153l4 -3h-11l-63 -93l3 -2c-14 -1 -48 -63 -53 -72c-1 -3 -37 -87 -38 -87c4 -10 1 3 3 -10v-32
l24 -27c59 2 36 -7 94 20c33 15 64 33 78 58c5 3 14 3 23 11c10 8 7 14 22 15l35 41l4 -3l-4 6l3 -1l20 17l-3 4h10c0 9 61 86 73 99c30 34 51 67 81 100c5 7 26 36 31 45c7 10 30 37 37 46c15 13 24 29 41 46c12 10 42 36 39 46c11 1 77 75 100 77z" />
    <glyph glyph-name="Z" unicode="Z" horiz-adv-x="520" 
d="M186 22l2 -4l-114 -57l6 -6l-4 5l-73 -46l3 -4c-11 -1 -55 -51 -78 -64c-17 -7 -58 -55 -71 -71c-15 -15 -43 -40 -58 -68c-4 -5 -44 -74 -51 -79v-12c-19 -9 -30 -67 -29 -94v-9c7 -108 134 -74 196 -48c4 1 23 9 28 15c15 10 8 2 23 10c18 14 31 24 48 36
c15 10 92 60 88 69l23 13l71 69l17 19l6 -3c-7 13 64 71 74 90c18 28 49 52 71 94c13 18 21 34 29 43c11 18 25 32 34 57c10 36 41 78 41 109l-2 9v26l-5 4c-8 -3 -53 -19 -69 -22c-25 -9 -37 -15 -66 -23l-73 -28c-24 -7 -46 -29 -67 -30zM599 650c66 0 62 6 107 -9
c32 -9 69 -40 69 -73c-1 -30 -16 -75 -36 -98c-14 -14 -61 -70 -81 -71c5 -12 -33 -28 -52 -38c-16 -13 -37 -32 -59 -35l6 -8l-94 -39v3l-12 -9c-16 -1 -36 -6 -45 -16l-1 4l-66 -21l2 -2c27 0 78 -7 98 -20c33 -17 42 -45 58 -72c8 -5 25 7 37 7h27l-1 -13
c-13 -1 -10 -7 -23 -7h-11l-26 1l2 -34v-5c0 -35 -17 -69 -27 -111c-2 -10 -42 -82 -58 -96c-11 -11 -15 -29 -30 -45c-4 -4 -35 -43 -38 -44c-12 -17 -76 -72 -71 -86c-19 -1 -55 -45 -68 -58c-10 -11 -10 -11 -17 -16c-15 -10 -7 -6 -15 -16c-3 -5 -34 -24 -38 -24l3 -6
c-7 0 -43 -30 -52 -36c-14 -16 -34 -27 -49 -39c-17 -14 -76 -55 -95 -65c-59 -18 -54 -25 -123 -36c-12 -3 -26 -3 -54 3c-26 2 -40 26 -55 26c3 6 -15 25 -16 41c-4 31 -4 17 -4 42c0 19 22 84 33 99c8 13 17 36 25 46c9 11 27 34 25 43l1 -4l73 86l-3 3c12 0 55 49 66 58
c27 18 42 36 69 57c36 29 101 70 143 91c50 24 100 57 158 72c26 7 50 26 77 31c6 1 78 27 78 27l32 3c-18 33 -6 24 -34 52c-21 20 -33 18 -50 30c-17 -13 -26 6 -51 0l-8 8l-84 -16c-17 30 34 25 49 31c24 6 50 11 72 19c5 2 16 8 20 8c8 2 3 -1 17 2c10 4 28 7 38 17
c29 10 48 17 78 34c54 25 104 58 147 96c36 33 77 93 77 139c0 37 -16 44 -48 66c-3 -6 7 -5 -5 -5h-12l2 5l-21 8l-8 -6l-50 -1l-7 -7c-55 1 -144 -41 -188 -69c-19 -11 -62 -30 -82 -50c-5 -7 -27 -18 -37 -26c-14 -9 -17 -25 -38 -28l6 -6c-38 -5 -121 -126 -138 -157
c-31 -46 -62 -125 -62 -177c0 -3 1 -36 2 -36c3 -12 34 -33 12 -33c-29 0 -36 82 -35 101c6 49 7 52 21 97c5 10 13 28 20 40c3 8 5 13 10 22c6 9 8 8 15 16c7 17 13 24 27 44c5 4 27 28 25 36c10 1 43 40 48 49c17 16 33 29 50 42c14 8 46 30 54 36c17 13 48 25 61 36
c14 11 47 27 59 33c10 6 16 8 29 13c6 3 20 7 32 11c24 7 39 14 62 21c17 5 45 5 56 14z" />
    <glyph glyph-name="x" unicode="x" horiz-adv-x="275" 
d="M-5 100l18 21c18 -1 47 16 66 20c14 5 19 7 32 1c12 -5 20 -22 15 -32c20 1 69 42 85 42h8l3 -9l3 -3l-91 -55l-8 -2c5 -9 -21 -30 10 -50c42 0 80 21 118 43c16 8 37 33 49 40c1 0 1 1 1 1l-48 -61l-63 -36c-15 6 -24 -5 -37 -8c-20 -6 -19 -2 -41 -2
c-8 12 -10 9 -17 24c-9 17 3 10 -5 26l-90 -58c-16 19 22 40 43 51c22 11 53 27 53 51v9v13c-35 0 -60 -25 -93 -26h-11z" />
    <glyph glyph-name="y" unicode="y" horiz-adv-x="250" 
d="M-166 212l-3 16h14l-3 -16h-8zM72 -48l-18 -10l-15 -2c-10 -14 -34 -23 -50 -33c-21 -12 -29 -21 -50 -31c-14 -7 -82 -61 -96 -74c-44 -37 -130 -136 -106 -182c22 -12 89 20 89 46c29 3 77 84 97 86l-2 4l8 3c-5 14 44 48 36 65c21 2 43 45 56 61c11 13 47 51 51 67z
M14 41l53 65v3c2 1 4 4 5 6c20 24 2 7 23 21c7 -12 17 -6 17 -13c0 -10 -26 -33 -33 -44c-15 -19 -21 -30 -35 -50c26 -11 53 18 73 27c14 8 65 35 60 47c17 2 33 24 44 35c7 6 12 16 20 16c5 1 19 -6 19 -18c0 -7 -28 -38 -33 -47c-7 -11 -26 -36 -37 -36l4 -3l-23 -28
l75 19l-1 -5l2 -9c-20 -14 -9 -13 -39 -24c-2 -1 -35 -13 -42 -14c-37 -11 -48 -33 -69 -58c-3 -4 -17 -22 -23 -32c-14 -18 -16 -19 -30 -34c-4 -4 -22 -30 -26 -36c-8 -10 -27 -24 -22 -34c-13 -2 -23 -17 -24 -29l-12 -5l3 -6c-21 -2 -101 -123 -130 -125l4 -7
c-7 0 -44 -18 -50 -22c-20 -16 -21 -11 -52 -11c-13 19 -27 17 -27 46v4c0 29 36 84 33 92l8 2l14 23l31 30l3 -2c3 25 117 91 123 112l1 -2l35 16l-3 6c30 3 73 50 109 54l-4 4l54 23l39 51c-31 -15 -60 -37 -89 -42c-30 -8 -61 -4 -48 34z" />
    <glyph glyph-name="r" unicode="r" horiz-adv-x="272" 
d="M13 11l-8 26c20 9 39 20 46 26c15 13 19 12 35 27c12 13 28 21 36 30c11 13 49 55 48 61l16 8c21 -24 -17 -19 -9 -51c7 -25 39 -9 51 -4c3 -43 -56 -71 -56 -98v-4c0 -21 31 -14 64 0l-2 -26c-27 -10 -45 -19 -78 0c-46 26 12 77 22 94l-34 20
c-18 -33 -94 -89 -126 -105c-2 -1 -3 -2 -5 -4z" />
    <glyph glyph-name="t" unicode="t" horiz-adv-x="256" 
d="M5 45l9 30v0c20 11 35 21 41 25c21 17 52 33 72 52c19 18 52 43 64 60l25 31l-3 2l8 2l12 26h11v11l-18 -2h-44l-24 -6v6l-39 -1l-23 -4l-8 4l-79 -4l-90 7l-10 -1h-13l-14 -1l-25 2c-2 9 -3 6 -3 13c0 3 5 8 7 11h44h18h10l31 -3l15 1l23 -2l4 2l73 -2l9 1l14 1l24 -2h4
c14 0 1 0 8 4l7 -7l9 7l1 -5l23 2v3l10 -7c13 9 51 2 62 2c15 0 44 33 45 53l8 2l67 88l-2 3c15 -7 22 24 34 24c6 0 11 -1 11 -7c0 -32 -96 -137 -111 -165l270 1l13 -11c-16 -25 -59 -21 -87 -21h-2c-7 0 -14 2 -18 1l-34 4l-35 -6l-10 12l-11 -8l-20 3h-11
c-27 0 -39 11 -54 2l-15 6c-11 -11 -56 -51 -51 -62h-11c4 -9 -51 -84 -54 -90c-22 -32 -49 -72 -57 -103l8 -10c6 4 49 13 57 16c21 6 43 22 65 31c6 2 23 14 43 29l-26 -41c-36 -9 -65 -53 -143 -53h-17c-3 11 -11 20 -11 28c0 37 40 78 43 103c-40 -26 -84 -62 -129 -87z
" />
    <glyph glyph-name="u" unicode="u" horiz-adv-x="299" 
d="M18 55l41 62c17 16 30 30 27 37c84 7 -38 -81 -38 -115c0 -19 19 -4 24 3h18c16 24 105 77 109 110l30 14l11 -5c0 -26 -23 -42 -37 -57c-12 -11 -33 -48 -33 -59v-17c44 -4 92 26 130 51l-15 -33c-1 -1 -2 -1 -3 -1l2 -3l-2 -4c-28 -5 -65 -41 -108 -42
c-29 20 -32 14 -32 61l-35 -19l4 -6c-10 -1 -31 -17 -38 -23c-5 -4 -27 -10 -39 -16c-23 33 -32 23 -16 62z" />
    <glyph glyph-name="w" unicode="w" horiz-adv-x="349" 
d="M-9 36l15 36c11 9 4 5 26 15l30 20c5 5 51 42 54 42h3c8 0 14 -5 14 -14v-4c0 -17 -27 -17 -21 -34c-13 -1 -20 -15 -28 -27c-7 -9 -22 -29 -22 -41l71 30l-4 7l3 -3l88 58l14 -7c15 -27 -59 -69 -60 -103c53 0 93 60 119 62c4 13 3 18 14 13c4 16 40 84 59 84h3
c35 0 -12 -54 -20 -66c0 -1 1 -1 2 -2l-22 -27l-11 1v-4l-67 -54l-3 3l4 -7l-77 -34l-16 7l-10 16l9 46c-14 5 -34 -18 -48 -26c-7 -3 -52 -23 -60 -23h-3c-31 0 -3 59 -18 59c-9 0 -24 -16 -38 -23z" />
    <glyph glyph-name="s" unicode="s" horiz-adv-x="327" 
d="M10 11l2 26v2c37 16 73 38 78 41c48 23 108 85 171 71l-3 -7h11c3 -40 -32 -91 -73 -111c8 -12 72 16 120 42l-10 -34c-37 -20 -75 -34 -110 -34c-38 -24 -56 -7 -92 -6l-22 21l6 26c20 2 12 7 19 7c18 0 13 -24 11 -29h22c34 23 109 78 96 111c-22 -12 -37 -10 -58 -28
c-12 -9 -40 -26 -54 -34c-19 -12 -36 -21 -51 -28c-14 -8 -26 -25 -49 -32c-5 0 -10 -2 -14 -4z" />
    <glyph glyph-name="m" unicode="m" horiz-adv-x="460" 
d="M12 45l-5 17c13 6 25 12 37 19c12 8 33 21 51 32c31 17 25 23 60 21c-6 -13 3 -5 3 -13c0 -19 -39 -72 -51 -96c25 2 140 81 163 96l12 -3c3 -4 4 -4 4 -10c0 -3 -41 -64 -45 -70v-19c5 3 34 14 42 17c9 3 34 20 40 25c8 4 16 8 21 11c10 3 10 9 20 16c8 4 40 26 40 26
c9 0 10 -4 13 -9c-7 -30 -29 -43 -29 -64l1 -3l-1 -13c18 -2 14 -5 31 -5c11 0 14 3 30 6c3 0 6 2 9 3l1 -21l-74 -9l-31 31l4 1l5 32c-51 -34 -70 -38 -128 -67c-6 8 -23 18 -23 29v3c0 13 10 32 16 42c-7 -1 -56 -30 -66 -36c-13 -8 -18 -12 -32 -19
c-13 -7 -28 -10 -39 -16c-45 40 41 79 28 109c-40 -27 -71 -44 -107 -63z" />
    <glyph glyph-name="n" unicode="n" horiz-adv-x="329" 
d="M25 89l-5 14c1 0 2 1 4 3c11 7 45 30 59 30c43 0 -9 -67 -3 -81c-15 -1 -22 -19 -20 -23c12 -5 128 67 148 80c2 -4 10 -11 10 -13c0 -16 -30 -37 -27 -67v-14c15 -1 40 -11 53 7l14 -3c6 8 39 17 51 23c6 2 13 6 19 8l5 -17c-14 -9 -28 -16 -44 -25
c-38 -20 -135 -41 -131 28v20c-17 -8 -26 -19 -32 -22c-9 -3 -22 -8 -36 -15c-19 -9 -57 -32 -70 -13c-13 22 51 74 54 106z" />
    <glyph glyph-name="o" unicode="o" 
d="M-23 11l-2 26c20 9 50 25 61 29c14 4 130 66 137 87h22v-7h7c-6 -23 -39 -34 -55 -54c-22 -28 -23 -40 -35 -59c12 -18 5 -14 29 -9c7 1 26 13 35 21c16 15 41 46 41 69c0 9 -8 29 -11 36c29 30 31 -18 44 -39l-15 -24c-11 -9 -13 -31 -33 -46c-11 -9 -54 -44 -69 -44
l-31 1l-22 29l27 59l-43 -24l3 -5l-85 -41l-3 3l-2 -8v0z" />
    <glyph glyph-name="p" unicode="p" horiz-adv-x="397" 
d="M-89 -167h-10c0 -5 -46 -73 -51 -79c-14 -24 -26 -67 -26 -87v-4c0 -48 65 -27 89 -2c17 15 29 29 46 45c19 21 18 26 38 45c7 8 30 42 37 52s12 21 14 25c6 9 16 17 20 24c6 10 47 87 65 88c-7 17 72 108 79 140c-8 -7 -22 -14 -39 -24c-17 -9 -27 -16 -43 -26
c-30 -21 -52 -35 -81 -58c-23 -19 -136 -113 -138 -139zM238 37l14 -6c5 1 16 3 16 3c13 0 2 1 11 -3c10 13 13 2 30 18c9 9 23 19 32 28c19 19 33 57 -3 52c-27 -3 -59 -9 -72 -33c-10 -15 -37 -42 -28 -59zM12 94l10 14h1c25 -14 53 -9 86 0c3 -12 36 5 54 12
c21 6 40 19 53 24c15 8 32 20 50 34c16 12 33 30 47 40l15 1c2 -22 2 -26 -13 -41c-7 -10 -23 -30 -19 -39c4 -2 38 10 49 10h3c26 0 46 -20 46 -45l-2 -13l-17 -27l-43 -27h-2l-60 -31c-17 0 -30 7 -47 19c-39 -37 -81 -132 -118 -176c-22 -25 -52 -65 -65 -86
c-5 -7 -28 -35 -34 -41c-11 -9 -35 -32 -33 -41l-2 1l-12 -15c-13 -1 -24 -11 -22 -19l-54 -35c-25 0 -15 -10 -27 -10h-11c-9 0 -9 12 -28 16c-2 23 -15 21 -15 54c0 22 8 41 17 62c8 22 52 91 64 104c15 15 21 27 41 48l49 48c17 17 90 81 105 83l-4 7c23 1 80 47 101 58
c28 12 91 39 80 66c-52 -34 -139 -74 -187 -74c-7 0 -46 7 -56 19z" />
    <glyph glyph-name="q" unicode="q" horiz-adv-x="264" 
d="M19 66l36 42c19 12 35 28 57 35c19 5 60 18 60 1c0 -18 -27 -19 -40 -28c-9 -4 -51 -25 -58 -26l2 -3l-27 -24l-17 -32l7 -6c9 6 17 5 34 14c20 10 20 12 35 24c12 8 47 41 50 52l27 6l8 -9c-9 -15 -2 -12 -12 -27c-7 -9 -16 -13 -20 -24c-8 -12 -27 -34 -38 -51
c41 0 64 9 96 19c7 2 20 8 34 14l6 -25c-52 -25 -100 -29 -151 -25h-3l1 -46v-45c0 -20 -16 -83 -27 -101c-5 -11 -54 -91 -54 -98l-14 -5l3 -2l-50 -56l-3 3l4 -7c-8 0 -68 -48 -80 -57c-23 -17 -63 -12 -63 26c0 39 35 94 60 128c9 14 26 47 39 60c9 10 43 56 40 63h11
c-4 11 40 60 46 70c9 13 47 68 56 71l-4 17c-23 0 -22 -8 -42 -8h-3c-8 0 -18 11 -18 15c0 15 7 34 12 45zM-52 -217c4 -10 -38 -57 -47 -73c-5 -11 -17 -22 -23 -33c-8 -12 -11 -19 -19 -33c-12 -22 -29 -65 15 -44c24 12 66 52 77 54l-2 2l49 54l19 42h11c-3 8 4 11 12 20
c7 10 6 15 13 25c10 16 13 25 17 43c10 40 14 59 14 94v17c-32 -12 -110 -165 -136 -168z" />
    <glyph glyph-name="l" unicode="l" horiz-adv-x="318" 
d="M-14 22l-2 18c6 3 12 6 18 8c35 16 70 29 106 53c27 18 15 21 22 51c6 22 10 34 17 53c12 33 35 67 50 101c7 14 24 34 31 46c5 9 22 35 32 47c30 34 53 58 84 90c30 30 64 51 93 80c1 1 38 21 48 26c18 9 43 14 56 24c47 -33 29 -27 15 -69c-7 -25 -20 -49 -36 -67
c-16 -21 -34 -48 -50 -71c-11 -14 -44 -53 -53 -62c-44 -43 -69 -79 -121 -122c-21 -18 -115 -103 -136 -105c-7 -26 -11 -31 -4 -55c10 -35 22 -32 41 -45c56 0 96 18 138 43c19 11 28 15 43 24l7 -17c-19 -9 -59 -37 -74 -43c-17 -8 -73 -30 -79 -30c-20 0 -56 -7 -81 21
c-19 24 -24 66 -29 69l-101 -61c-11 0 -23 -3 -35 -7zM309 407l-18 -7c5 -13 -26 -45 -36 -58c-13 -16 -28 -44 -41 -62c-6 -8 -51 -102 -51 -137l49 32l-4 7c14 1 90 73 103 87c15 15 34 39 41 46s36 25 48 42c33 52 148 167 148 227c0 27 -60 -7 -70 -13
c-23 -16 -45 -31 -65 -50c-17 -18 -111 -99 -104 -114z" />
    <glyph glyph-name="h" unicode="h" horiz-adv-x="366" 
d="M513 619c1 -4 0 -10 4 -10c1 0 3 5 6 7c-1 2 0 17 -10 3zM15 84l-2 21c45 27 92 56 104 68c33 31 45 77 71 105c6 6 24 37 31 50s32 44 29 53l8 1l10 23h6c15 29 142 185 179 189l-4 7c5 0 49 24 53 27c17 8 40 4 40 -17c0 -28 -28 -81 -48 -110c-11 -12 -23 -30 -32 -42
c-10 -14 -42 -34 -36 -47c-21 -2 -109 -127 -142 -130l3 -5l-76 -61l-2 3l3 -6c-30 -3 -65 -62 -76 -83c-12 -25 -41 -84 -34 -102c12 5 18 2 24 7c9 7 12 9 22 15c9 5 28 18 38 23c23 11 56 44 88 61c3 -4 10 -12 10 -14c0 -7 -18 -39 -20 -45c-11 -25 -5 -26 7 -45
c24 3 45 8 63 13c9 3 18 8 25 13l5 -22c-27 -16 -58 -30 -86 -30l-4 1l-27 -1c-15 21 -24 24 -24 47c0 13 -1 2 3 10l-6 7l-18 -6l4 -7c-29 -3 -118 -87 -133 -44c-15 44 29 86 33 130c-30 -20 -59 -40 -89 -57zM361 474c-14 -2 -37 -45 -43 -57c-3 -3 -10 -8 -14 -13
c-15 -16 2 -2 -8 -15c-11 -14 -12 -14 -21 -31s-30 -44 -45 -62c-12 -17 -32 -54 -37 -66l3 -3l70 59l-7 9l13 4c-4 13 13 16 23 15l73 67l1 15l10 -1s72 90 79 98c13 15 62 87 62 101v4l-3 13c-17 9 -79 -42 -86 -55c-7 -12 -76 -66 -70 -82zM761 658c0 8 1 10 9 10l6 -3
l-6 -9z" />
    <glyph glyph-name="i" unicode="i" horiz-adv-x="212" 
d="M198 274l21 21l19 -6c-2 -14 -16 -38 -31 -38c-5 0 -8 7 -10 10zM-7 40l-5 23c7 3 15 5 25 10c19 9 94 67 100 83l17 -6l4 -11c-7 -10 -8 -12 -16 -25c-4 -6 -14 -19 -19 -27c-22 -36 -15 -48 -21 -63c58 -4 74 22 119 38c2 1 5 2 7 3l8 -18c-44 -24 -91 -47 -116 -47
h-18c-19 0 -28 32 -32 44l15 33c-14 -2 -39 -19 -68 -37z" />
    <glyph glyph-name="j" unicode="j" horiz-adv-x="240" 
d="M19 46l-7 14c32 19 87 60 97 60c-3 10 14 15 24 26c12 15 12 9 31 0l-48 -88l3 -1l115 67l2 -13c-47 -29 -92 -59 -97 -64c-17 -14 -36 -13 -53 -33c-6 -8 -22 -40 -27 -46c-9 -15 -62 -91 -57 -99h-10c4 -12 -67 -109 -80 -128c-12 -20 -30 -40 -41 -60
c-8 -14 -45 -53 -42 -62c-14 0 -22 -8 -19 -18l-9 -3l2 -2c-22 -2 -24 -32 -65 -33c-27 20 -39 35 -30 65c4 14 8 30 10 41c3 21 14 26 20 45c11 31 78 111 108 139c41 35 92 92 134 117c12 6 68 47 74 50c9 11 46 64 42 68c-3 1 -37 -20 -77 -42zM-59 -80l2 -8
c-10 0 -48 -35 -58 -43c-21 -22 -29 -33 -50 -56c-12 -14 -83 -97 -76 -111h-10c2 -5 -20 -58 -21 -75c-1 -42 31 -37 49 -29c17 11 94 108 94 128c14 -6 70 104 79 121c6 10 13 20 23 29c3 7 7 17 16 30c16 27 25 45 45 71c-29 -3 -79 -56 -93 -57zM180 220
c5 8 17 28 28 28h16l1 -11l5 -1l-30 -35l-16 8z" />
    <glyph glyph-name="k" unicode="k" horiz-adv-x="349" 
d="M377 495l-7 -2l-119 -166c18 1 61 51 71 65l-6 3h6v7l14 -7c4 16 26 35 37 46c15 14 24 30 36 46c10 16 59 77 54 90c-13 5 -91 -70 -86 -82zM9 130l-2 19h8c13 19 80 51 101 69c19 16 33 25 51 42c21 22 22 28 37 52c25 38 46 66 73 108c8 10 33 40 37 47
c6 13 13 13 19 24c11 18 12 9 19 22l43 43l3 -3l-3 7c19 2 39 37 78 41c15 -22 19 -27 -3 -59c-11 -17 -22 -34 -41 -55c-12 -17 -70 -99 -89 -102l3 -7c-11 0 -80 -65 -93 -78c-15 -12 -27 -15 -43 -35c-17 -21 -17 -23 -33 -47c-39 -55 -94 -127 -129 -192
c71 6 213 226 302 226h10c17 0 34 -20 34 -34v-11c0 -46 -124 -116 -168 -116c7 -17 -7 -18 15 -45c22 -25 26 -15 43 -27c11 7 44 5 64 12c7 3 17 6 27 10l2 -18c-16 -6 -32 -14 -45 -17c-8 -3 -30 -5 -41 -5c-28 3 -32 8 -51 8c-13 19 -4 1 -18 12c-15 13 0 8 -14 21
c-16 18 -15 33 -16 54l34 5c20 13 47 23 64 32c18 11 46 43 54 45l19 43l-3 13l-14 4l-3 -10c-53 12 -137 -115 -165 -117c5 -10 -37 -52 -55 -55l4 -6c-18 -1 -60 -55 -106 -54l-7 6c2 31 2 19 19 49c8 15 24 44 30 49c12 13 24 41 30 50c7 13 33 35 34 51
c-3 0 -59 -35 -115 -71z" />
    <glyph glyph-name="e" unicode="e" horiz-adv-x="173" 
d="M58 79c10 7 62 41 62 49c0 13 1 1 -4 10c-19 -13 -56 -30 -58 -59zM167 65l1 -24c-31 -21 -67 -39 -100 -39c-20 -14 -43 1 -57 23h-1l-1 33c1 0 1 1 2 1c14 29 11 30 39 59c14 13 50 40 73 40c15 0 20 -7 30 -10c-6 -27 -34 -62 -61 -65l4 -6c-18 -2 -23 -12 -36 -20
c-27 -15 -7 -4 -15 -25c7 -2 16 -8 20 -8l34 5l7 10c15 0 39 12 61 26z" />
    <glyph glyph-name="f" unicode="f" horiz-adv-x="269" 
d="M29 -98l4 -2c-20 -2 -66 -94 -82 -114c-9 -8 -69 -102 -71 -125c13 9 61 46 56 57c21 2 60 71 76 72l-3 3l24 37c44 62 112 163 110 243l-35 -52l-6 -2l3 -3zM184 198l14 3l-3 6l16 17l-4 4l-27 -24zM184 198l-27 -23l-16 -10c5 -10 -1 -13 -12 -14
c2 -10 -24 -38 -38 -42l-5 -11c-12 -1 -43 -27 -78 -50l-1 22c19 12 35 25 44 32c10 10 12 5 25 19c8 8 15 17 23 23c22 18 26 26 45 44c26 28 165 165 157 185c9 1 31 34 36 43c13 22 18 26 31 48c9 15 26 36 35 51c5 10 37 49 37 50h9c8 0 10 -6 17 -10
c-19 -37 -46 -64 -59 -92c-8 -19 -55 -70 -64 -89c-8 -15 -24 -32 -29 -43c-4 -11 -24 -38 -33 -49c-23 -33 -46 -62 -65 -93c-10 -13 -2 -10 -11 -21c-10 -12 -9 -12 -16 -25c-15 -26 -9 -42 -14 -61c-6 -24 -14 -36 18 -44c4 -1 36 5 48 9v-23c-15 -7 -31 -12 -47 -12
c-28 0 -11 -1 -32 14c-4 -4 -19 -49 -24 -59c-5 -9 -21 -38 -28 -55c-9 -22 -26 -44 -33 -57c-6 -10 -35 -48 -37 -52c-16 -18 -27 -37 -39 -51c-13 -16 -36 -33 -47 -50c-6 -11 -36 -38 -44 -45c-23 -17 -36 -23 -53 -35c-18 16 -17 32 -9 46c4 10 17 38 22 49
c9 18 58 78 60 100h10c-7 16 50 62 43 80h10c-6 15 12 27 27 49c8 12 31 43 29 49l14 9l28 49l-3 2l8 2l92 134z" />
    <glyph glyph-name="g" unicode="g" horiz-adv-x="294" 
d="M110 -38l-65 -39l3 -6c-18 -1 -70 -45 -74 -60c-11 5 -85 -68 -79 -80c-15 -2 -20 -20 -30 -34c-13 -18 -17 -17 -28 -39c-15 -31 -20 -50 -12 -83c20 -2 24 -8 38 -2c9 5 23 20 38 22c3 13 98 123 112 155c9 26 96 149 97 166zM3 10l-1 23c27 13 87 44 99 56
c19 18 28 23 46 38c7 6 47 26 57 26h10c25 0 9 -23 -11 -33c-13 -6 -36 -21 -45 -24c-35 -14 -57 -34 -74 -69c31 -12 66 31 83 33l-3 7c18 1 49 44 53 53c19 -8 32 7 15 -29c-9 -18 -22 -33 -31 -51c4 1 44 22 88 48l1 -20l-85 -52c-46 -27 -41 -30 -70 -76
c-20 -32 -40 -66 -62 -95c-21 -29 -33 -53 -56 -84c-22 -28 -37 -49 -58 -78c-21 -28 -47 -60 -76 -78c-55 -31 -60 -16 -85 23c0 102 111 187 113 212l2 -2l46 39l3 -3l-3 4l40 32l3 -3l-4 6l140 89l23 29l-87 -34l-15 7l-8 13c3 5 10 20 0 20c-4 0 -23 -15 -48 -27z" />
    <glyph glyph-name="G" unicode="G" horiz-adv-x="838" 
d="M824 33v-19c-4 -1 -8 -1 -11 -1l2 -9l-23 9l-22 -12c-32 20 -18 -8 -43 -8h-6c-11 0 -11 4 -20 10c-11 -8 -17 -10 -35 -10c-3 0 -12 7 -15 10h-16c-17 -33 -141 -51 -182 -51c-33 0 -23 11 -71 11c-56 37 -74 26 -91 106c22 6 9 10 25 10h16c45 0 126 -41 166 -41h6
c26 0 79 -14 120 -12c25 0 75 45 92 64c27 30 54 40 69 77c14 33 33 47 33 95v14c0 77 -107 55 -138 36c-25 -13 -129 -28 -151 25l-29 -12c5 -14 -66 -86 -92 -89l3 -3l-22 -24l-21 -19l-149 -131l-4 4l5 -9c-30 -2 -108 -98 -156 -102l5 -9c-23 -3 -40 -21 -52 -21
c-4 0 -15 11 -15 15c0 28 72 52 91 67c20 17 62 39 90 61c19 15 18 21 45 37c4 3 43 31 47 35c18 15 65 71 87 74l154 154c-2 99 21 118 54 168c13 19 91 121 126 123l6 21c26 -11 74 84 111 29c-15 -60 -214 -295 -264 -328c54 -113 135 -26 203 -26h45c28 0 66 -41 66 -66
v-35c0 -17 -29 -76 -25 -86c-22 -2 -45 -49 -65 -72c-22 -25 -55 -37 -77 -70c42 4 92 2 128 10zM686 620h-15l5 -10c-37 -3 -142 -174 -111 -197l5 21c24 -11 105 128 136 131l-5 3l76 124c-25 -1 -89 -50 -91 -72zM478 -18l97 17l-10 14c-50 -4 -219 41 -223 36
c11 -46 117 -69 136 -67z" />
    <glyph glyph-name="P" unicode="P" horiz-adv-x="298" 
d="M532 322c-7 11 -56 15 -83 21c-27 5 -54 14 -67 -10c71 -47 76 -16 150 -11zM597 647c12 19 104 43 128 49c22 5 57 5 69 3c37 -3 68 -23 76 -25c-5 -12 49 -34 18 -108c-16 -42 -44 -69 -75 -101c-10 -10 -41 -35 -49 -38c-1 0 -47 -31 -52 -35
c-21 -19 -105 -50 -112 -59l38 -3l54 1c11 -1 19 7 28 -9l-8 -5h-26l-15 -1h-13l-44 5c-69 4 -116 -26 -167 -26h-4c-38 0 -38 12 -68 14l3 7c-23 1 -28 36 5 43c40 9 55 -6 88 -6c15 -10 49 -11 74 -15c38 -5 25 1 61 14c23 9 134 70 134 70l-2 6l56 43c-3 7 41 49 51 71
c17 38 18 30 18 85l-26 44h-15v6l-75 9l-7 -7l-10 6c-12 -9 -72 -23 -94 -33c-33 -16 -59 -27 -94 -46c-30 -15 -165 -119 -174 -119l2 -3l-15 -16l3 -1c-13 -2 -19 -5 -14 -15c-15 -1 -32 -17 -28 -27l-16 -11l-26 -25c5 -13 -73 -70 -67 -87c-16 -1 -88 -105 -98 -122
c-11 -22 -32 -52 -41 -70c-9 -15 -11 -23 -19 -34c-12 -17 -3 -18 -16 -37l4 -6c25 0 69 44 80 62c22 33 47 47 66 74c4 6 46 63 56 74c5 6 48 63 52 71c9 20 34 56 45 79c4 9 10 8 15 19c5 12 4 11 10 23c8 14 8 15 21 35l17 -14l-23 -51c-9 -18 -20 -28 -26 -42
c-11 -24 -39 -68 -60 -93c-10 -13 -18 -27 -26 -38c-13 -17 -22 -23 -32 -40c-11 -17 -71 -67 -66 -81c-14 -1 -24 -11 -20 -21l-3 4l-20 -21l3 -3c-14 -2 -19 -4 -14 -14c-29 -2 -36 -52 -85 -47c-7 24 -10 26 0 50c5 11 12 30 19 43c19 37 37 63 57 93
c40 61 87 117 139 175c16 16 22 28 40 46l41 41c18 18 66 67 85 77c34 20 154 113 189 113z" />
    <glyph glyph-name="v" unicode="v" horiz-adv-x="219" 
d="M48 76c-7 3 -17 -2 -27 -9v20v0v1v3l95 63l15 -6c16 -30 -63 -76 -64 -114c56 0 100 66 128 68c4 15 3 20 15 15c5 17 43 91 65 91h3c38 0 -13 -59 -22 -72c1 -1 2 -1 3 -2l-25 -29h-11v-4l-74 -59l-3 4l4 -8l-83 -37l-17 7l-12 19z" />
    <glyph glyph-name="period" unicode="." horiz-adv-x="108" 
d="M26 48l30 30l28 -9c-3 -20 -24 -55 -45 -55c-7 0 -12 10 -15 15z" />
    <glyph glyph-name="colon" unicode=":" horiz-adv-x="117" 
d="M26 48l30 30l28 -9c-3 -20 -24 -55 -45 -55c-7 0 -12 10 -15 15zM20 411l30 30l28 -9c-3 -20 -24 -55 -45 -55c-7 0 -12 10 -15 15z" />
    <glyph glyph-name="question" unicode="?" horiz-adv-x="833" 
 />
    <glyph glyph-name="exclam" unicode="!" horiz-adv-x="143" 
d="M26 48l30 30l28 -9c-3 -20 -24 -55 -45 -55c-7 0 -12 10 -15 15zM275 358l-191 -252l-13 17c20 21 39 42 53 60c21 27 24 39 42 67c9 14 37 50 47 67c5 11 30 50 43 66c17 22 30 39 40 65c5 13 43 47 40 66c23 6 41 74 72 43l-91 -155h-10l3 -2l-25 -42h-10z" />
    <glyph glyph-name="comma" unicode="," horiz-adv-x="91" 
d="M-6 -31l62 109l28 -9c-3 -20 -56 -134 -77 -134c-7 0 -12 10 -15 15z" />
    <glyph glyph-name="semicolon" unicode=";" horiz-adv-x="117" 
d="M20 411l30 30l28 -9c-3 -20 -24 -55 -45 -55c-7 0 -12 10 -15 15zM-6 -31l62 109l28 -9c-3 -20 -56 -134 -77 -134c-7 0 -12 10 -15 15z" />
    <glyph glyph-name="A" unicode="A" horiz-adv-x="549" 
d="M629 697l33 4h30c37 0 42 -49 26 -49c-4 0 -13 19 -40 19c-11 0 -34 -4 -47 -5c-18 -3 -20 -6 -37 -9c-20 -2 -8 -6 -28 -10c-23 -5 -102 -54 -114 -55c4 -9 -12 -15 -22 -19c-14 -5 -12 -4 -27 -17c-7 -8 -46 -41 -56 -42l4 -6c-23 -3 -73 -65 -90 -82
c-9 -9 -72 -80 -67 -89h-11c5 -12 -26 -38 -31 -48c-8 -19 -19 -33 -30 -48c-9 -11 -44 -102 -44 -113c0 -21 -5 -16 -7 -33l1 -14l-1 -3c0 -33 39 -47 60 -47c19 0 60 9 81 22c30 19 52 27 78 52c14 13 22 15 37 29c10 11 21 23 31 32c47 39 86 80 126 126
c11 13 22 21 32 34c11 12 18 26 27 38c11 12 20 24 30 36c8 9 28 21 24 32c15 2 30 35 39 46c20 21 5 22 42 20c-5 -12 -4 -31 -18 -47c-16 -19 -19 -30 -31 -44c-9 -10 -18 -32 -27 -47c-9 -14 -16 -24 -26 -42c-10 -19 -19 -34 -25 -47c-5 -10 -8 -13 -13 -23
c-9 -15 -2 -12 -9 -24c-13 -27 -38 -80 -38 -103c0 -1 4 -7 4 -7c-13 -9 -7 -12 -7 -23c0 -22 -6 -74 46 -79v-16c-20 9 -27 -10 -55 27c-16 22 -6 44 -27 45c3 28 3 -10 9 13c1 4 -1 11 0 16c2 20 2 22 6 42c4 32 6 32 19 65c14 34 35 87 61 127c-11 -4 -63 -69 -78 -84
c-12 -12 -76 -76 -79 -87l-3 3l-20 -20l-56 -52l-4 4l5 -7c-4 -1 -65 -40 -77 -46c-12 -5 -9 -7 -17 -12c-9 -5 -8 0 -18 -5c-15 -7 -24 -8 -37 -16l-42 -1l-19 2c-15 1 -36 13 -43 32c-7 13 -10 13 -12 26c-2 9 -4 24 -4 27l-18 -25c-3 3 -6 14 -6 18c0 18 14 50 21 73
c4 18 9 10 13 32c2 11 6 18 12 29l10 -7c13 24 21 41 35 64c10 19 12 17 19 33c5 10 16 28 22 34c10 10 34 45 43 59c10 15 53 47 48 60c23 2 13 18 30 19c-5 13 21 27 26 30c18 13 50 49 70 61c30 17 49 33 80 51c25 14 58 32 89 43c13 3 71 22 76 25z" />
    <glyph glyph-name="space" unicode=" " horiz-adv-x="500" 
 />
    </font>
</defs>
</svg>
